Courier10PitchBT-Roman.sfdir
StartChar: exclam
Encoding: 33 33 1
Width: 602
Flags: W
HStem: -11 155<273.5 329> 192 20 592 20<283.5 318.5>
VStem: 210 182<45 89> 244 114<546 551 550 551 546 570>
LayerCount: 2
Fore
SplineSet
210 67 m 0x90
 210 111 245 144 301 144 c 0
 357 144 392 111 392 67 c 0
 392 22 357 -11 301 -11 c 0
 246 -11 210 23 210 67 c 0x90
244 546 m 2x68
 244 548 244 549 244 551 c 0
 244 589 266 612 301 612 c 0
 336 612 358 589 358 551 c 0
 358 549 358 548 358 546 c 2
 341 229 l 2
 340 208 324 192 301 192 c 0
 278 192 262 208 261 229 c 2
 244 546 l 2x68
EndSplineSet
EndChar
StartChar: dollar
Encoding: 36 36 4
Width: 602
Flags: MW
HStem: -122 20 33 68<320 320> 525 64<275 275 275 324.5> 646 20<303 325>
VStem: 111 81<430 470.5 430 484> 413 84<156 204>
LayerCount: 2
Fore
SplineSet
359 337 m 2
 451 307 497 259 497 183 c 0
 497 101 433 40 320 33 c 1
 314 -80 l 2
 313 -108 301 -122 278 -122 c 0
 253 -122 245 -110 245 -84 c 0
 245 -81 245 -77 245 -74 c 2
 251 36 l 1
 223 41 199 52 175 69 c 1
 165 54 155 47 140 47 c 0
 115 47 98 65 98 95 c 2
 98 163 l 2
 98 186 114 203 138 203 c 0
 176 203 175 166 185 149 c 0
 197 128 252 101 311 101 c 0
 374 101 413 134 413 178 c 0
 413 230 373 247 304 271 c 2
 219 300 l 2
 152 323 111 379 111 443 c 0
 111 525 169 581 275 589 c 1
 278 626 l 2
 280 652 292 666 314 666 c 0
 336 666 348 654 348 631 c 0
 348 629 348 627 348 625 c 2
 345 586 l 1
 368 580 391 572 414 561 c 1
 424 573 433 578 442 578 c 0
 469 578 476 565 476 538 c 2
 476 478 l 2
 476 455 464 441 442 441 c 0
 412 441 410 462 399 483 c 0
 386 509 348 525 301 525 c 0
 232 525 192 493 192 448 c 0
 192 412 217 384 265 368 c 2
 359 337 l 2
EndSplineSet
EndChar
StartChar: percent
Encoding: 37 37 5
Width: 602
Flags: W
HStem: -1 57<333 383 333 400> 205 57<333 383> 353 58<219 269 219 286> 559 58<219 269>
VStem: 101 61<463.5 506.5 463.5 522.5> 215 60<109.5 152.5 109.5 168.5> 326 60<463.5 506.5> 440 60<109.5 152.5>
LayerCount: 2
Fore
SplineSet
101 485 m 0
 101 560 161 617 244 617 c 0
 328 617 386 560 386 485 c 0
 386 410 328 353 244 353 c 0
 160 353 101 410 101 485 c 0
215 131 m 0
 215 206 275 262 358 262 c 0
 442 262 500 206 500 131 c 0
 500 56 442 -1 358 -1 c 0
 274 -1 215 56 215 131 c 0
454 399 m 2
 459 401 464 402 468 402 c 0
 484 402 494 391 494 375 c 0
 494 364 487 353 475 348 c 2
 147 218 l 2
 142 216 138 215 134 215 c 0
 118 215 106 227 106 242 c 0
 106 253 115 264 127 269 c 2
 454 399 l 2
162 485 m 0xff
 162 442 194 411 244 411 c 0
 294 411 326 442 326 485 c 0
 326 528 294 559 244 559 c 0
 194 559 162 528 162 485 c 0xff
275 131 m 0
 275 88 308 56 358 56 c 0
 408 56 440 88 440 131 c 0
 440 174 408 205 358 205 c 0
 308 205 275 174 275 131 c 0
EndSplineSet
EndChar
StartChar: ampersand
Encoding: 38 38 6
Width: 602
Flags: W
HStem: -11 76<237 267> 0 72<423.5 475 463 471> 216 74 482 65<261 288.5 237 298>
VStem: 89 86<130.5 174.5 130.5 179.5> 143 78<415.5 444 415.5 459>
LayerCount: 2
Fore
SplineSet
341 103 m 1x88
 232 251 l 1
 193 224 175 193 175 156 c 0
 175 105 213 65 261 65 c 0
 289 65 314 78 341 103 c 1x88
384 46 m 1x74
 340 8 293 -11 241 -11 c 0
 154 -11 89 57 89 147 c 0x88
 89 212 121 259 189 310 c 1
 159 353 143 390 143 425 c 0
 143 493 200 547 274 547 c 0
 303 547 330 536 362 519 c 0
 366 520 370 520 374 520 c 0
 395 520 407 509 407 491 c 0
 407 467 385 446 369 446 c 0
 347 446 318 482 278 482 c 0
 244 482 221 459 221 429 c 0
 221 402 240 376 265 341 c 2
 386 175 l 1
 413 241 404 290 444 290 c 2
 474 290 l 2
 487 290 501 276 501 253 c 0
 501 229 495 221 470 216 c 1
 462 182 449 148 433 114 c 1
 463 72 l 1
 475 72 l 2
 486 72 496 61 496 39 c 0
 496 13 485 0 471 0 c 2
 430 0 l 2
 417 0 410 12 399 27 c 2
 384 46 l 1x74
EndSplineSet
EndChar
StartChar: quotesingle
Encoding: 169 39 103
Width: 602
Flags: MW
HStem: 331 248<275 285 285 316>
VStem: 244 114<548 554 553 554 548 562.5>
LayerCount: 2
Fore
SplineSet
285 331 m 2
 265 331 261 340 259 362 c 2
 244 548 l 2
 244 550 244 552 244 554 c 0
 244 571 252 579 267 579 c 2
 334 579 l 2
 349 579 358 571 358 554 c 0
 358 552 358 550 358 548 c 2
 342 362 l 2
 340 340 336 331 316 331 c 2
 285 331 l 2
EndSplineSet
EndChar
StartChar: parenleft
Encoding: 40 40 8
Width: 602
Flags: MW
HStem: -196 20 576 20<369.5 386.5>
VStem: 202 96<157 255 157 255>
LayerCount: 2
Fore
SplineSet
400 574 m 0
 400 557 380 526 359 476 c 0
 324 393 298 310 298 200 c 0
 298 114 314 37 345 -43 c 0
 373 -114 400 -154 400 -173 c 0
 400 -187 392 -196 381 -196 c 0
 358 -196 326 -165 288 -103 c 0
 230 -9 202 90 202 200 c 0
 202 310 230 409 288 503 c 0
 326 565 358 596 381 596 c 0
 392 596 400 588 400 574 c 0
EndSplineSet
EndChar
StartChar: parenright
Encoding: 41 41 9
Width: 602
Flags: MW
HStem: -196 20 576 20<214.5 231.5>
VStem: 303 97<145 243>
LayerCount: 2
Fore
SplineSet
201 -173 m 0
 201 -156 222 -126 243 -76 c 0
 278 7 303 90 303 200 c 0
 303 286 287 364 256 444 c 0
 228 515 201 555 201 574 c 0
 201 588 209 596 220 596 c 0
 243 596 275 565 313 503 c 0
 371 409 400 310 400 200 c 0
 400 90 371 -9 313 -103 c 0
 275 -165 243 -196 220 -196 c 0
 209 -196 201 -187 201 -173 c 0
EndSplineSet
EndChar
StartChar: asterisk
Encoding: 42 42 10
Width: 602
Flags: MW
HStem: 201 20 559 20
VStem: 103 395<406 409>
LayerCount: 2
Fore
SplineSet
329 419 m 1
 458 474 l 2
 463 476 468 477 470 477 c 0
 477 477 479 472 483 460 c 2
 495 423 l 2
 497 415 498 411 498 409 c 0
 498 403 493 399 483 397 c 2
 346 366 l 1
 438 260 l 2
 442 255 445 251 445 246 c 0
 445 243 442 238 433 232 c 2
 401 209 l 2
 393 204 389 201 386 201 c 0
 381 201 377 204 373 212 c 2
 301 333 l 1
 228 212 l 2
 224 205 219 201 215 201 c 0
 213 201 208 203 200 209 c 2
 169 232 l 2
 160 238 156 243 156 246 c 0
 156 251 158 255 163 260 c 2
 255 366 l 1
 119 397 l 2
 109 399 103 403 103 408 c 0
 103 410 104 416 106 423 c 2
 119 460 l 2
 123 472 126 477 132 477 c 0
 135 477 139 477 144 475 c 2
 273 419 l 1
 260 559 l 2
 260 561 260 563 260 565 c 0
 260 577 265 579 281 579 c 2
 320 579 l 2
 336 579 341 577 341 565 c 0
 341 563 341 561 341 559 c 2
 329 419 l 1
EndSplineSet
EndChar
StartChar: comma
Encoding: 44 44 12
Width: 602
Flags: MW
HStem: -157 319<236.5 382>
VStem: 179 219
LayerCount: 2
Fore
SplineSet
243 136 m 2
 248 157 253 162 275 162 c 2
 382 162 l 2
 392 162 398 158 398 152 c 0
 398 149 397 144 394 138 c 2
 260 -141 l 2
 255 -151 247 -157 238 -157 c 0
 235 -157 232 -156 229 -155 c 2
 194 -142 l 2
 184 -138 179 -132 179 -124 c 0
 179 -119 179 -116 180 -112 c 2
 243 136 l 2
EndSplineSet
EndChar
StartChar: hyphen
Encoding: 45 45 13
Width: 602
Flags: MW
HStem: 178 95<90.5 502 97 502>
VStem: 76 449<201 253 195 259>
LayerCount: 2
Fore
SplineSet
97 178 m 2
 84 178 76 187 76 201 c 2
 76 253 l 2
 76 265 84 273 97 273 c 2
 502 273 l 2
 517 273 525 265 525 253 c 2
 525 201 l 2
 525 189 514 178 502 178 c 2
 97 178 l 2
EndSplineSet
EndChar
StartChar: period
Encoding: 46 46 14
Width: 602
Flags: MW
HStem: -7 174<272 330>
VStem: 205 192<55 105>
LayerCount: 2
Fore
SplineSet
205 80 m 0
 205 130 243 167 301 167 c 0
 359 167 397 131 397 80 c 0
 397 29 359 -7 301 -7 c 0
 243 -7 205 30 205 80 c 0
EndSplineSet
EndChar
StartChar: slash
Encoding: 47 47 15
Width: 602
Flags: MW
HStem: -55 20 679 20<458 477>
VStem: 114 389
LayerCount: 2
Fore
SplineSet
191 -13 m 2
 179 -40 169 -55 148 -55 c 0
 130 -55 114 -40 114 -21 c 0
 114 -15 116 -8 119 -1 c 2
 424 656 l 2
 438 685 448 699 468 699 c 0
 486 699 503 685 503 666 c 0
 503 660 501 654 498 648 c 2
 191 -13 l 2
EndSplineSet
EndChar
StartChar: zero
Encoding: 48 48 16
Width: 602
Flags: MW
HStem: -16 69<265 337 265 360.5> 562 70<265 337>
VStem: 101 81<224 392 224 411.5> 419 82<224 392>
LayerCount: 2
Fore
SplineSet
301 -16 m 0
 182 -16 101 101 101 308 c 0
 101 515 182 632 301 632 c 0
 420 632 501 515 501 308 c 0
 501 101 420 -16 301 -16 c 0
301 562 m 0
 229 562 182 476 182 308 c 0
 182 140 229 53 301 53 c 0
 373 53 419 140 419 308 c 0
 419 476 373 562 301 562 c 0
EndSplineSet
EndChar
StartChar: one
Encoding: 49 49 17
Width: 602
Flags: MW
HStem: 0 69<154 276 195 276 353 431 431 454> 609 20<330 339>
VStem: 276 77<69 546 546 546>
LayerCount: 2
Fore
SplineSet
184 524 m 2
 179 523 174 522 169 522 c 0
 148 522 135 535 135 553 c 0
 135 569 146 581 167 587 c 2
 312 626 l 2
 320 628 327 629 333 629 c 0
 345 629 353 617 353 597 c 2
 353 69 l 1
 431 69 l 2
 477 69 498 67 498 35 c 0
 498 12 485 0 459 0 c 2
 167 0 l 2
 141 0 128 12 128 35 c 0
 128 67 149 69 195 69 c 2
 276 69 l 1
 276 546 l 1
 184 524 l 2
EndSplineSet
EndChar
StartChar: two
Encoding: 50 50 18
Width: 602
Flags: MW
HStem: 0 77<114 415 192 415 192 453> 564 68<270.5 322.5>
VStem: 398 85<406 482>
LayerCount: 2
Fore
SplineSet
131 0 m 2
 97 0 80 13 80 43 c 0
 80 77 119 110 188 176 c 0
 316 297 398 365 398 447 c 0
 398 517 354 564 291 564 c 0
 250 564 209 546 187 517 c 0
 175 501 168 472 134 472 c 0
 110 472 105 489 105 523 c 0
 105 542 106 551 121 566 c 0
 162 606 227 632 293 632 c 0
 402 632 483 553 483 451 c 0
 483 335 379 261 252 135 c 2
 192 77 l 1
 415 77 l 1
 418 106 431 120 452 120 c 0
 473 120 487 106 487 80 c 0
 487 77 486 73 486 70 c 2
 481 32 l 2
 479 11 468 0 453 0 c 2
 131 0 l 2
EndSplineSet
EndChar
StartChar: three
Encoding: 51 51 19
Width: 602
Flags: W
HStem: -16 75<244 322.5 244 345.5> 564 68<258 323>
VStem: 395 81<438 489.5> 414 83<143.5 207>
LayerCount: 2
Fore
SplineSet
377 336 m 1x60
 454 315 497 257 497 178 c 0
 497 67 411 -16 280 -16 c 0
 176 -16 90 31 90 75 c 0
 90 95 106 109 126 109 c 0
 155 109 205 59 283 59 c 0
 362 59 414 109 414 178 c 0x90
 414 236 379 279 320 290 c 0
 270 299 244 285 244 328 c 0
 244 364 259 357 310 365 c 0
 361 373 395 410 395 458 c 0
 395 521 352 564 294 564 c 0
 222 564 185 512 155 512 c 0
 137 512 123 525 123 543 c 0
 123 576 200 632 299 632 c 0
 404 632 476 559 476 472 c 0
 476 404 445 360 377 336 c 1x60
EndSplineSet
EndChar
StartChar: four
Encoding: 52 52 20
Width: 602
Flags: MW
HStem: 0 69<285 289 289 342 414 431 431 447> 151 74<106 342 157 342 157 342 157 414 414 439 439 449> 610 20<330.5 338>
VStem: 342 72<69 151 69 151 225 556 556 556>
LayerCount: 2
Fore
SplineSet
289 0 m 2
 260 0 249 7 249 35 c 0
 249 59 260 69 285 69 c 2
 342 69 l 1
 342 151 l 1
 114 151 l 2
 98 151 88 161 88 181 c 2
 88 215 l 2
 88 238 98 249 106 262 c 2
 312 612 l 2
 320 626 325 630 336 630 c 0
 340 630 344 630 349 629 c 2
 399 621 l 2
 409 619 414 611 414 596 c 2
 414 225 l 1
 439 225 l 2
 459 225 453 242 469 242 c 0
 482 242 492 232 492 218 c 0
 492 215 492 209 490 201 c 2
 486 181 l 2
 482 160 476 151 455 151 c 2
 414 151 l 1
 414 69 l 1
 420 69 426 69 431 69 c 0
 470 69 486 62 486 35 c 0
 486 12 473 0 447 0 c 2
 289 0 l 2
342 225 m 1
 342 556 l 1
 157 225 l 1
 342 225 l 1
EndSplineSet
EndChar
StartChar: five
Encoding: 53 53 21
Width: 602
Flags: MW
HStem: -16 71<235 317.5 235 344.5> 337 68<286 323> 540 76<191 412 191 191>
VStem: 120 71<382 382 382 540> 420 82<155.5 236>
LayerCount: 2
Fore
SplineSet
191 382 m 1
 232 397 269 405 303 405 c 0
 419 405 502 315 502 199 c 0
 502 77 411 -16 278 -16 c 0
 163 -16 85 20 85 60 c 0
 85 77 100 93 119 93 c 0
 143 93 197 55 273 55 c 0
 362 55 420 115 420 196 c 0
 420 276 362 337 284 337 c 0
 208 337 176 293 147 293 c 0
 123 293 120 312 120 343 c 2
 120 586 l 2
 120 609 134 616 165 616 c 2
 412 616 l 2
 444 616 459 603 459 578 c 0
 459 554 442 540 412 540 c 2
 191 540 l 1
 191 382 l 1
EndSplineSet
EndChar
StartChar: six
Encoding: 54 54 22
Width: 602
Flags: MW
HStem: -16 70<277 339.5 277 367.5> 317 71<288.5 337> 612 20<319 440.5>
VStem: 101 95<178 227.5 148.5 375.5> 416 83<143.5 223>
LayerCount: 2
Fore
SplineSet
185 320 m 1
 220 365 263 388 314 388 c 0
 414 388 499 303 499 187 c 0
 499 69 422 -16 313 -16 c 0
 186 -16 101 92 101 264 c 0
 101 487 226 632 412 632 c 0
 469 632 490 627 490 599 c 0
 490 553 440 575 371 562 c 0
 270 543 202 458 185 320 c 1
196 190 m 0
 196 107 245 54 309 54 c 0
 370 54 416 104 416 183 c 0
 416 263 369 317 305 317 c 0
 243 317 196 265 196 190 c 0
EndSplineSet
EndChar
StartChar: seven
Encoding: 55 55 23
Width: 602
Flags: MW
HStem: -9 20 543 73<171 419 171 171>
VStem: 102 389<520 574>
LayerCount: 2
Fore
SplineSet
308 10 m 2
 302 -8 299 -9 288 -9 c 0
 285 -9 283 -9 280 -9 c 2
 245 -9 l 2
 232 -9 224 -3 224 6 c 0
 224 10 225 16 227 22 c 2
 419 543 l 1
 171 543 l 1
 169 513 158 498 135 498 c 0
 112 498 102 509 102 531 c 0
 102 535 102 539 103 544 c 2
 108 588 l 2
 110 606 122 616 141 616 c 2
 464 616 l 2
 482 616 491 609 491 591 c 2
 491 574 l 2
 491 564 487 551 481 533 c 2
 308 10 l 2
EndSplineSet
EndChar
StartChar: eight
Encoding: 56 56 24
Width: 602
Flags: W
HStem: -16 68<264.5 337 264.5 360> 568 64<267 335.5>
VStem: 102 80<133.5 201 133.5 201> 108 79<427 490.5 427 508.5> 415 79<427 490> 420 80<131.5 200.5>
LayerCount: 2
Fore
SplineSet
203 316 m 1xa4
 139 348 108 395 108 459 c 0
 108 558 186 632 301 632 c 0
 416 632 494 555 494 459 c 0x58
 494 395 461 346 398 316 c 1
 464 289 500 235 500 166 c 0
 500 59 419 -16 301 -16 c 0
 182 -16 102 60 102 168 c 0
 102 234 138 288 203 316 c 1xa4
187 459 m 0x58
 187 395 234 349 301 349 c 0
 367 349 415 394 415 460 c 0
 415 520 370 568 301 568 c 0
 233 568 187 522 187 459 c 0x58
182 166 m 0xa4
 182 101 228 52 301 52 c 0
 373 52 420 97 420 166 c 0
 420 235 371 280 301 280 c 0
 231 280 182 236 182 166 c 0xa4
EndSplineSet
EndChar
StartChar: nine
Encoding: 57 57 25
Width: 602
Flags: MW
HStem: -16 20 228 71<260 309.5> 562 70<257.5 320>
VStem: 99 83<393 472.5 393 487.5> 402 95<388.5 437.5 239.5 467.5>
LayerCount: 2
Fore
SplineSet
402 426 m 0
 402 509 352 562 288 562 c 0
 227 562 182 512 182 433 c 0
 182 353 228 299 292 299 c 0
 353 299 402 351 402 426 c 0
412 295 m 1
 376 250 335 228 284 228 c 0
 184 228 99 312 99 428 c 0
 99 547 176 632 284 632 c 0
 410 632 497 524 497 351 c 0
 497 128 374 -16 182 -16 c 0
 128 -16 107 -11 107 16 c 0
 107 63 158 41 226 54 c 0
 328 74 395 157 412 295 c 1
EndSplineSet
EndChar
StartChar: colon
Encoding: 58 58 26
Width: 602
Flags: MW
HStem: -7 174<272 330> 263 174<272 330>
VStem: 205 192<55 105 325 375>
LayerCount: 2
Fore
SplineSet
205 80 m 0
 205 130 243 167 301 167 c 0
 359 167 397 131 397 80 c 0
 397 29 359 -7 301 -7 c 0
 243 -7 205 30 205 80 c 0
205 350 m 0
 205 400 243 437 301 437 c 0
 359 437 397 401 397 350 c 0
 397 299 359 263 301 263 c 0
 243 263 205 300 205 350 c 0
EndSplineSet
EndChar
StartChar: semicolon
Encoding: 59 59 27
Width: 602
Flags: W
HStem: -157 301<233.5 371> 263 174<269 327>
VStem: 179 207 202 193<325 375>
LayerCount: 2
Fore
SplineSet
202 350 m 0x50
 202 400 240 437 298 437 c 0
 356 437 395 401 395 350 c 0
 395 299 356 263 298 263 c 0
 240 263 202 300 202 350 c 0x50
240 119 m 2xa0
 245 138 249 144 270 144 c 2
 371 144 l 2
 380 144 386 139 386 134 c 0
 386 131 385 127 382 121 c 2
 256 -141 l 2
 251 -151 244 -157 235 -157 c 0
 232 -157 229 -156 226 -155 c 2
 194 -143 l 2
 185 -140 179 -133 179 -126 c 0
 179 -121 180 -117 181 -114 c 2
 240 119 l 2xa0
EndSplineSet
EndChar
StartChar: greater
Encoding: 62 62 30
Width: 602
Flags: MW
HStem: 69 20 526 20<81 97>
VStem: 59 509<90.5 319 293 524.5>
LayerCount: 2
Fore
SplineSet
518 259 m 2
 130 81 l 2
 114 73 102 69 91 69 c 0
 71 69 59 81 59 100 c 0
 59 120 74 132 100 144 c 2
 444 307 l 1
 100 472 l 2
 74 484 59 495 59 515 c 0
 59 534 71 546 91 546 c 0
 103 546 114 541 130 534 c 2
 518 353 l 2
 549 339 568 332 568 306 c 0
 568 280 551 274 518 259 c 2
EndSplineSet
EndChar
StartChar: question
Encoding: 63 63 31
Width: 602
Flags: W
HStem: -7 147<242.5 298> 188 20 544 68<267 328>
VStem: 180 181<46.5 88> 234 73<223 224 224 252 252 263 213.5 268.5> 409 78<406 472.5>
LayerCount: 2
Fore
SplineSet
234 252 m 2x6c
 234 285 243 304 274 320 c 0
 340 355 409 369 409 443 c 0
 409 502 366 544 290 544 c 0
 244 544 203 527 196 515 c 0
 190 506 200 457 158 457 c 0
 138 457 122 473 122 500 c 2
 122 548 l 2
 122 583 204 612 298 612 c 0
 414 612 487 541 487 442 c 0
 487 357 429 308 307 263 c 1
 307 224 l 2
 307 203 293 188 270 188 c 0
 247 188 234 201 234 223 c 2
 234 252 l 2x6c
180 67 m 0x90
 180 109 214 140 270 140 c 0
 326 140 361 109 361 67 c 0
 361 25 326 -7 270 -7 c 0
 215 -7 180 26 180 67 c 0x90
EndSplineSet
EndChar
StartChar: at
Encoding: 64 64 32
Width: 602
Flags: MW
HStem: -52 63<281.5 353.5 281.5 363> 164 61<322.5 336.5> 400 56<342.5 376> 607 61<266.5 333.5>
VStem: 109 67<218.5 415 218.5 428.5> 212 64<277.5 331.5 277.5 346.5> 392 66<237 399 399 399 234 468 234 513.5>
LayerCount: 2
Fore
SplineSet
392 455 m 1
 392 459 392 464 392 468 c 0
 392 559 361 607 306 607 c 0
 227 607 176 508 176 322 c 0
 176 115 229 11 334 11 c 0
 373 11 402 30 423 30 c 0
 435 30 445 19 445 5 c 0
 445 -26 397 -52 329 -52 c 0
 192 -52 109 71 109 311 c 0
 109 546 187 668 310 668 c 0
 417 668 458 590 458 433 c 2
 458 234 l 1
 469 220 475 210 475 199 c 0
 475 177 456 158 436 158 c 0
 424 158 413 166 399 181 c 1
 374 170 349 164 324 164 c 0
 263 164 212 216 212 299 c 0
 212 394 273 456 375 456 c 0
 381 456 386 455 392 455 c 1
392 237 m 1
 392 399 l 1
 385 400 379 400 373 400 c 0
 312 400 276 361 276 302 c 0
 276 253 301 225 344 225 c 0
 355 225 371 229 392 237 c 1
EndSplineSet
EndChar
StartChar: A
Encoding: 65 65 33
Width: 602
Flags: MW
HStem: 0 69<47 52 52 59 134 180 426 429 429 471 552 560 560 562> 185 65<200 400 200 424 176 400> 509 70<135.5 307 168 225 294 294>
VStem: 1 605<21 48>
LayerCount: 2
Fore
SplineSet
225 509 m 1
 154 509 l 2
 117 509 100 517 100 544 c 0
 100 579 122 579 168 579 c 2
 307 579 l 2
 335 579 348 578 361 546 c 2
 552 69 l 2
 555 69 557 69 560 69 c 0
 594 69 606 62 606 35 c 0
 606 7 594 0 562 0 c 2
 429 0 l 2
 390 0 371 3 371 35 c 0
 371 63 388 69 426 69 c 2
 471 69 l 1
 424 185 l 1
 176 185 l 1
 134 69 l 1
 181 69 l 2
 219 69 237 63 237 35 c 0
 237 3 218 0 180 0 c 2
 52 0 l 2
 15 0 1 5 1 35 c 0
 1 61 14 69 47 69 c 0
 51 69 55 69 59 69 c 2
 225 509 l 1
200 250 m 1
 400 250 l 1
 294 509 l 1
 200 250 l 1
EndSplineSet
EndChar
StartChar: B
Encoding: 66 66 34
Width: 602
Flags: W
HStem: 0 69<64.5 120 103 120 197 295 295 305 305 330> 269 60<197 299 299 310 197 299> 509 70<83 104 104 120 197 197 197 307 307 318>
VStem: 120 77<69 269 329 509> 435 84<396.5 447.5> 472 85<141.5 202 141.5 209>
LayerCount: 2
Fore
SplineSet
295 0 m 2xd4
 76 0 l 2
 53 0 42 12 42 35 c 0
 42 68 60 69 103 69 c 2
 120 69 l 1
 120 509 l 1
 104 509 l 2
 62 509 45 512 45 544 c 0
 45 567 57 579 79 579 c 2
 307 579 l 2
 448 579 519 522 519 422 c 0xf8
 519 371 497 332 453 307 c 1
 524 282 557 237 557 167 c 0
 557 116 534 70 493 39 c 0
 444 3 391 0 330 0 c 0
 319 0 307 0 295 0 c 2xd4
197 329 m 1xfc
 299 329 l 2
 390 329 435 357 435 419 c 0
 435 476 395 509 318 509 c 2
 197 509 l 1
 197 329 l 1xfc
197 69 m 1xd4
 305 69 l 2
 417 69 472 91 472 169 c 0
 472 249 417 269 310 269 c 2
 197 269 l 1
 197 69 l 1xd4
EndSplineSet
EndChar
StartChar: C
Encoding: 67 67 35
Width: 602
Flags: MW
HStem: -14 76<266.5 339 266.5 348.5> 528 66<262.5 341.5 238 351.5>
VStem: 39 89<218 366 218 376>
LayerCount: 2
Fore
SplineSet
455 563 m 1
 462 580 472 587 491 587 c 0
 525 587 527 572 527 538 c 0
 527 463 529 424 529 417 c 0
 529 391 523 378 494 378 c 0
 452 378 457 402 446 446 c 0
 434 492 384 528 319 528 c 0
 206 528 128 443 128 289 c 0
 128 147 212 62 321 62 c 0
 357 62 398 73 436 94 c 0
 468 112 488 134 505 134 c 0
 526 134 541 119 541 99 c 0
 541 77 522 61 486 38 c 0
 432 3 380 -14 317 -14 c 0
 159 -14 39 110 39 289 c 0
 39 463 157 594 319 594 c 0
 364 594 408 583 455 563 c 1
EndSplineSet
EndChar
StartChar: D
Encoding: 68 68 36
Width: 602
Flags: W
HStem: -2 68<242.5 304> 0 69<73 108 95 107 107 108 95 184> 509 70<79.5 184 107 108 107 184> 511 68<232 292 292 323>
VStem: 108 76<69 509> 477 81<245 367>
LayerCount: 2
Fore
SplineSet
184 0 m 2x68
 107 0 l 2
 101 0 95 0 85 0 c 0
 61 0 49 12 49 35 c 0
 49 62 62 69 95 69 c 0
 99 69 103 69 108 69 c 1x68
 108 509 l 1
 104 509 100 509 96 509 c 0
 63 509 49 517 49 544 c 0
 49 577 68 579 107 579 c 2
 184 579 l 2
 237 579 273 579 292 579 c 0
 452 579 558 469 558 289 c 0
 558 201 529 125 477 71 c 0
 425 17 355 -2 253 -2 c 0xac
 232 -2 209 0 184 0 c 2x68
184 69 m 1
 205 67 226 66 245 66 c 0
 405 66 477 135 477 289 c 0
 477 445 405 511 241 511 c 0x9c
 223 511 204 511 184 509 c 1
 184 69 l 1
EndSplineSet
EndChar
StartChar: E
Encoding: 69 69 37
Width: 602
Flags: MW
HStem: 0 69<57 123 69 123 92 123 200 460> 285 59<200 328 200 328> 509 70<71 495 92 123 200 200 200 460>
VStem: 123 77<69 285 344 509> 328 62<271 285 282.5 285 344 351.5> 460 69<69 148 148 159 423 425 425 439 439 509 509 509>
LayerCount: 2
Fore
SplineSet
92 0 m 2
 87 0 79 0 69 0 c 0
 45 0 33 12 33 35 c 0
 33 66 50 69 92 69 c 2
 123 69 l 1
 123 509 l 1
 92 509 l 2
 50 509 33 513 33 544 c 0
 33 577 53 579 92 579 c 2
 495 579 l 2
 517 579 529 566 529 540 c 2
 529 425 l 2
 529 394 522 380 495 380 c 0
 469 380 460 393 460 423 c 0
 460 425 460 430 460 439 c 2
 460 509 l 1
 200 509 l 1
 200 344 l 1
 328 344 l 1
 328 359 327 368 327 370 c 0
 327 403 334 417 359 417 c 0
 386 417 390 399 390 359 c 2
 390 268 l 2
 390 229 388 211 359 211 c 0
 333 211 328 229 328 271 c 0
 328 275 328 280 328 285 c 1
 200 285 l 1
 200 69 l 1
 460 69 l 1
 460 148 l 2
 460 189 463 207 495 207 c 0
 523 207 529 192 529 159 c 2
 529 36 l 2
 529 13 517 0 495 0 c 2
 92 0 l 2
EndSplineSet
EndChar
StartChar: F
Encoding: 70 70 38
Width: 602
Flags: MW
HStem: 0 69<69 104 88 104 104 135 212 297 297 316 316 321> 509 70<80 86.5 85 104 104 135 212 212 212 477>
VStem: 135 77<69 285 344 509> 341 61<271 285 282.5 285 344 357 355 378> 477 69<423 439 439 509 509 509>
LayerCount: 2
Fore
SplineSet
297 69 m 2
 307 69 313 69 316 69 c 0
 343 69 355 59 355 35 c 0
 355 12 343 0 321 0 c 2
 80 0 l 2
 58 0 46 12 46 35 c 0
 46 61 58 69 88 69 c 0
 90 69 95 69 104 69 c 2
 135 69 l 1
 135 509 l 1
 104 509 l 2
 94 509 88 509 85 509 c 0
 58 509 46 520 46 544 c 0
 46 567 58 579 80 579 c 2
 512 579 l 2
 534 579 546 566 546 540 c 2
 546 414 l 2
 546 392 535 380 512 380 c 0
 486 380 477 393 477 423 c 0
 477 425 477 430 477 439 c 2
 477 509 l 1
 212 509 l 1
 212 344 l 1
 341 344 l 1
 341 348 341 353 341 357 c 0
 341 399 346 417 372 417 c 0
 393 417 402 405 402 378 c 2
 402 254 l 2
 402 224 396 211 372 211 c 0
 346 211 341 229 341 271 c 0
 341 275 341 280 341 285 c 1
 212 285 l 1
 212 69 l 1
 297 69 l 2
EndSplineSet
EndChar
StartChar: G
Encoding: 71 71 39
Width: 602
Flags: MW
HStem: -15 68<273.5 353.5 273.5 368> 200 64<324.5 548 337 456 530 531 530 536> 529 66<257 336.5 232.5 344>
VStem: 34 89<215.5 366 215.5 376> 456 74<84 200>
LayerCount: 2
Fore
SplineSet
456 84 m 1
 456 200 l 1
 334 200 l 2
 315 200 306 211 306 232 c 0
 306 257 313 264 337 264 c 2
 548 264 l 2
 565 264 573 254 573 232 c 0
 573 208 564 200 536 200 c 0
 534 200 532 200 530 200 c 1
 530 65 l 2
 530 61 530 57 530 53 c 0
 530 39 529 33 515 25 c 0
 484 7 410 -15 326 -15 c 0
 149 -15 34 107 34 289 c 0
 34 463 151 595 314 595 c 0
 359 595 403 585 450 565 c 1
 457 581 467 589 486 589 c 0
 520 589 524 570 524 512 c 0
 524 494 524 472 524 446 c 0
 524 415 515 403 487 403 c 0
 456 403 455 425 444 448 c 0
 421 498 374 529 314 529 c 0
 200 529 123 443 123 289 c 0
 123 142 213 53 334 53 c 0
 373 53 412 64 456 84 c 1
EndSplineSet
EndChar
StartChar: H
Encoding: 72 72 40
Width: 602
Flags: MW
HStem: 0 69<73 108 95 107 107 108 394 418> 272 67<184 418 184 418> 509 70<79.5 209 107 108 184 188 184 206 398 418 494 496 494 506>
VStem: 108 76<69 272 339 509> 418 76<69 272 272 272 339 509>
LayerCount: 2
Fore
SplineSet
184 69 m 1
 184 69 195 70 217 70 c 0
 253 70 269 61 269 35 c 0
 269 4 251 0 214 0 c 2
 107 0 l 2
 101 0 95 0 85 0 c 0
 61 0 49 12 49 35 c 0
 49 62 62 69 95 69 c 0
 99 69 103 69 108 69 c 1
 108 509 l 1
 104 509 100 509 96 509 c 0
 63 509 49 517 49 544 c 0
 49 577 68 579 107 579 c 2
 209 579 l 2
 250 579 269 577 269 544 c 0
 269 515 250 509 206 509 c 0
 199 509 192 509 184 509 c 1
 184 339 l 1
 418 339 l 1
 418 509 l 1
 418 509 407 509 385 509 c 0
 349 509 333 518 333 544 c 0
 333 579 354 579 398 579 c 2
 494 579 l 2
 498 579 506 579 517 579 c 0
 541 579 553 567 553 544 c 0
 553 517 539 509 506 509 c 0
 502 509 498 509 494 509 c 1
 494 69 l 1
 499 69 503 69 507 69 c 0
 540 69 553 62 553 35 c 0
 553 2 534 0 494 0 c 2
 394 0 l 2
 353 0 333 2 333 35 c 0
 333 63 351 69 394 69 c 0
 401 69 409 69 418 69 c 1
 418 272 l 1
 184 272 l 1
 184 69 l 1
EndSplineSet
EndChar
StartChar: I
Encoding: 73 73 41
Width: 602
Flags: MW
HStem: 0 69<118 262 130 262 153 262 339 449> 509 70<132 449 153 262 339 339 339 449>
VStem: 262 77<69 509 69 509>
LayerCount: 2
Fore
SplineSet
449 69 m 2
 491 69 508 66 508 35 c 0
 508 2 489 0 449 0 c 2
 153 0 l 2
 144 0 136 0 130 0 c 0
 106 0 94 12 94 35 c 0
 94 66 111 69 153 69 c 2
 262 69 l 1
 262 509 l 1
 153 509 l 2
 111 509 94 513 94 544 c 0
 94 577 114 579 153 579 c 2
 449 579 l 2
 453 579 461 579 472 579 c 0
 496 579 508 567 508 544 c 0
 508 513 491 509 449 509 c 2
 339 509 l 1
 339 69 l 1
 449 69 l 2
EndSplineSet
EndChar
StartChar: J
Encoding: 74 74 42
Width: 602
Flags: MW
HStem: -14 62<221 293.5 216 325> 509 70<222 515 243 375 452 452 452 515>
VStem: 54 68<179 188 188 192 179 195 179 211> 375 77<209 509>
LayerCount: 2
Fore
SplineSet
375 509 m 1
 243 509 l 2
 201 509 184 513 184 544 c 0
 184 577 204 579 243 579 c 2
 515 579 l 2
 520 579 528 579 538 579 c 0
 562 579 573 567 573 544 c 0
 573 513 557 509 515 509 c 2
 452 509 l 1
 452 197 l 2
 452 53 398 -14 252 -14 c 0
 190 -14 135 0 81 29 c 0
 56 43 54 52 54 80 c 2
 54 195 l 2
 54 227 54 246 86 246 c 0
 102 246 113 239 118 228 c 0
 122 219 122 207 122 192 c 0
 122 191 122 189 122 187 c 0
 122 171 123 152 128 131 c 0
 142 81 185 48 247 48 c 0
 340 48 375 99 375 209 c 2
 375 509 l 1
EndSplineSet
EndChar
StartChar: K
Encoding: 75 75 43
Width: 602
Flags: MW
HStem: 0 69<59 94 78 94 94 125 513 527 527 539> 509 70<70 76.5 75 94 94 125 201 205 201 223 405 405 497 498.5 497 505>
VStem: 125 76<69 222 310 509>
LayerCount: 2
Fore
SplineSet
201 69 m 1
 201 69 212 70 234 70 c 0
 270 70 286 61 286 35 c 0
 286 5 271 0 237 0 c 2
 70 0 l 2
 48 0 36 12 36 35 c 0
 36 61 48 69 78 69 c 0
 80 69 85 69 94 69 c 2
 125 69 l 1
 125 509 l 1
 94 509 l 2
 84 509 78 509 75 509 c 0
 48 509 36 520 36 544 c 0
 36 567 48 579 70 579 c 2
 237 579 l 2
 271 579 286 574 286 544 c 0
 286 515 267 509 223 509 c 0
 216 509 209 509 201 509 c 1
 201 310 l 1
 405 509 l 1
 399 508 393 508 388 508 c 0
 357 508 343 519 343 544 c 0
 343 569 353 579 378 579 c 2
 522 579 l 2
 544 579 556 567 556 544 c 0
 556 516 541 509 505 509 c 0
 502 509 500 509 497 509 c 2
 308 326 l 1
 382 311 432 222 513 69 c 1
 518 69 523 69 527 69 c 0
 560 69 573 62 573 35 c 0
 573 12 561 0 539 0 c 2
 492 0 l 2
 470 0 464 4 455 19 c 0
 450 27 426 72 381 154 c 0
 341 227 303 266 255 273 c 1
 201 222 l 1
 201 69 l 1
EndSplineSet
EndChar
StartChar: M
Encoding: 77 77 45
Width: 602
Flags: MW
HStem: 0 70<164 178> 513 66<62 78.5 77 85 517 525 517 518.5>
VStem: 7 588<23.5 48.5>
LayerCount: 2
Fore
SplineSet
302 240 m 1
 406 546 l 2
 415 571 431 579 459 579 c 2
 540 579 l 2
 561 579 572 567 572 546 c 0
 572 520 559 513 525 513 c 0
 522 513 520 513 517 513 c 1
 531 69 l 1
 537 69 542 69 547 69 c 0
 582 69 595 62 595 35 c 0
 595 12 584 0 561 0 c 2
 424 0 l 2
 390 0 375 5 375 35 c 0
 375 63 393 69 434 69 c 0
 441 69 448 69 455 69 c 1
 444 489 l 1
 348 208 l 2
 339 181 326 172 298 172 c 0
 271 172 258 181 249 208 c 2
 151 489 l 1
 142 69 l 1
 142 69 153 70 175 70 c 0
 211 70 227 61 227 35 c 0
 227 5 212 0 178 0 c 2
 41 0 l 2
 18 0 7 12 7 35 c 0
 7 62 20 69 55 69 c 0
 60 69 65 69 71 69 c 1
 85 513 l 1
 82 513 80 513 77 513 c 0
 43 513 30 520 30 546 c 0
 30 567 41 579 62 579 c 2
 142 579 l 2
 170 579 186 571 195 546 c 2
 302 240 l 1
EndSplineSet
EndChar
StartChar: N
Encoding: 78 78 46
Width: 602
Flags: MW
HStem: 0 69<64 99 90 99 90 99 168 193 193 221> 509 70<70.5 145 393 399 393 425 425 444 512 513 512 519>
VStem: 99 69<69 468> 444 68<123 509>
LayerCount: 2
Fore
SplineSet
168 69 m 1
 193 69 l 2
 211 69 222 69 228 69 c 0
 262 69 278 60 278 35 c 0
 278 3 260 0 221 0 c 2
 99 0 l 2
 88 0 80 0 76 0 c 0
 52 0 41 12 41 35 c 0
 41 63 55 69 90 69 c 0
 93 69 96 69 99 69 c 1
 99 509 l 1
 42 509 17 513 17 544 c 0
 17 578 45 579 99 579 c 2
 145 579 l 2
 177 579 183 575 198 548 c 2
 444 123 l 1
 444 509 l 1
 425 509 l 2
 419 509 408 509 390 509 c 0
 356 509 340 519 340 544 c 0
 340 575 357 579 393 579 c 2
 510 579 l 2
 514 579 522 579 533 579 c 0
 557 579 568 567 568 544 c 0
 568 517 555 509 519 509 c 0
 517 509 514 509 512 509 c 1
 512 17 l 2
 512 -7 500 -8 476 -8 c 0
 474 -8 472 -8 470 -8 c 0
 443 -8 444 -7 428 20 c 2
 168 468 l 1
 168 69 l 1
EndSplineSet
EndChar
StartChar: O
Encoding: 79 79 47
Width: 602
Flags: MW
HStem: -15 69<248.5 353.5 248.5 377.5> 526 69<247 353.5>
VStem: 37 88<214 366 214 380> 477 88<214 366>
LayerCount: 2
Fore
SplineSet
301 54 m 0
 406 54 477 138 477 290 c 0
 477 442 406 526 301 526 c 0
 193 526 125 442 125 290 c 0
 125 138 196 54 301 54 c 0
565 290 m 0
 565 110 454 -15 301 -15 c 0
 150 -15 37 111 37 290 c 0
 37 470 146 595 301 595 c 0
 454 595 565 470 565 290 c 0
EndSplineSet
EndChar
StartChar: P
Encoding: 80 80 48
Width: 602
Flags: MW
HStem: 0 69<66.5 142 79 142 219 317> 218 64<219 304 219 309> 509 70<85.5 108 108 142 219 304 304 309 219 219>
VStem: 142 77<69 218 69 282 282 509> 463 83<358 434>
LayerCount: 2
Fore
SplineSet
321 69 m 2
 352 69 366 59 366 35 c 0
 366 5 351 0 317 0 c 2
 78 0 l 2
 55 0 44 12 44 35 c 0
 44 58 55 69 79 69 c 2
 142 69 l 1
 142 509 l 1
 108 509 l 2
 63 509 44 511 44 544 c 0
 44 567 55 579 78 579 c 2
 304 579 l 2
 465 579 546 516 546 398 c 0
 546 280 465 218 304 218 c 2
 219 218 l 1
 219 69 l 1
 321 69 l 2
219 509 m 1
 219 282 l 1
 309 282 l 2
 411 282 463 320 463 396 c 0
 463 472 411 509 309 509 c 2
 219 509 l 1
EndSplineSet
EndChar
StartChar: Q
Encoding: 81 81 49
Width: 602
Flags: W
HStem: -125 65<432 464> -93 56<310 323> -10 65<292.5 351.5 250 377> 526 69<250 352>
VStem: 37 88<219 366 214 378> 477 88<214 366>
LayerCount: 2
Fore
SplineSet
301 55 m 0xbc
 402 55 477 138 477 290 c 0
 477 442 403 526 301 526 c 0
 199 526 125 442 125 290 c 0
 125 138 199 55 301 55 c 0xbc
224 1 m 1x40
 112 33 37 147 37 291 c 0
 37 465 153 595 301 595 c 0
 449 595 565 464 565 290 c 0
 565 109 456 -10 298 -10 c 0
 287 -10 277 -10 266 -9 c 1
 214 -60 l 1xbc
 246 -47 285 -37 335 -37 c 0x40
 377 -37 414 -60 450 -60 c 0
 478 -60 498 -42 517 -42 c 0
 531 -42 545 -59 545 -77 c 0
 545 -96 500 -125 453 -125 c 0xbc
 399 -125 349 -93 297 -93 c 0
 234 -93 194 -128 174 -128 c 0
 160 -128 141 -109 141 -92 c 0
 141 -75 173 -50 224 1 c 1x40
EndSplineSet
EndChar
StartChar: R
Encoding: 82 82 50
Width: 602
Flags: MW
HStem: 0 69<53 88 72 88 88 116 524 540 540 553> 251 65<192 256 192 293> 513 66<64 72 70 88 88 116 192 270 270 296 192 192>
VStem: 116 76<69 251 316 513> 430 84<382 436.5 375 447>
LayerCount: 2
Fore
SplineSet
192 69 m 1
 192 69 203 70 225 70 c 0
 261 70 277 61 277 35 c 0
 277 5 262 0 228 0 c 2
 64 0 l 2
 42 0 30 12 30 35 c 0
 30 61 42 69 72 69 c 0
 74 69 79 69 88 69 c 2
 116 69 l 1
 116 513 l 1
 88 513 l 2
 79 513 74 513 70 513 c 0
 42 513 30 523 30 546 c 0
 30 568 42 579 64 579 c 2
 270 579 l 2
 353 579 414 576 459 537 c 0
 493 507 514 461 514 412 c 0
 514 338 467 281 384 260 c 1
 403 248 415 235 426 219 c 2
 524 69 l 1
 530 69 535 69 540 69 c 0
 574 69 587 62 587 35 c 0
 587 12 576 0 553 0 c 2
 499 0 l 2
 473 0 465 15 448 40 c 2
 353 182 l 2
 318 235 301 251 256 251 c 2
 192 251 l 1
 192 69 l 1
192 513 m 1
 192 316 l 1
 293 316 l 2
 384 316 430 350 430 414 c 0
 430 480 386 513 296 513 c 2
 192 513 l 1
EndSplineSet
EndChar
StartChar: S
Encoding: 83 83 51
Width: 602
Flags: MW
HStem: -17 66<277 348.5 270 370.5> 530 66<258 322 239 324>
VStem: 86 79<399.5 455 399.5 468.5> 447 80<125 180.5>
LayerCount: 2
Fore
SplineSet
158 17 m 1
 155 -12 146 -22 119 -22 c 0
 91 -22 79 -6 77 29 c 2
 71 142 l 2
 71 146 71 149 71 152 c 0
 71 180 79 194 109 194 c 0
 150 194 145 156 163 120 c 0
 184 77 235 49 305 49 c 0
 392 49 447 95 447 155 c 0
 447 206 414 238 352 247 c 2
 280 257 l 2
 150 275 86 322 86 420 c 0
 86 517 176 596 302 596 c 0
 342 596 381 585 426 567 c 1
 426 586 435 592 457 592 c 0
 492 592 495 581 497 555 c 2
 504 453 l 2
 504 451 504 450 504 448 c 0
 504 425 490 412 467 412 c 0
 428 412 434 448 413 479 c 0
 392 510 350 530 298 530 c 0
 218 530 165 486 165 424 c 0
 165 375 202 346 277 336 c 2
 355 326 l 2
 469 311 527 256 527 164 c 0
 527 56 439 -17 302 -17 c 0
 252 -17 207 -5 158 17 c 1
EndSplineSet
EndChar
StartChar: T
Encoding: 84 84 52
Width: 602
Flags: W
HStem: 0 69<153 188 172 188 188 262 339 414 414 433 433 438> 509 70<122 262 122 122 339 479 339 339>
VStem: 46 510<349 361> 262 77<69 509 69 509>
LayerCount: 2
Fore
SplineSet
118 382 m 2xd0
 117 340 114 325 80 325 c 0
 58 325 46 337 46 361 c 2
 46 361 46 369 47 384 c 2
 52 545 l 2
 53 569 64 579 89 579 c 2
 513 579 l 2
 538 579 549 569 550 545 c 2
 555 384 l 2
 555 369 556 362 556 360 c 0x60
 556 337 544 325 522 325 c 0
 488 325 485 340 484 382 c 2
 479 509 l 1
 339 509 l 1
 339 69 l 1
 414 69 l 2
 424 69 430 69 433 69 c 0
 460 69 472 59 472 35 c 0
 472 12 460 0 438 0 c 2
 164 0 l 2
 142 0 130 12 130 35 c 0
 130 61 142 69 172 69 c 0
 174 69 179 69 188 69 c 2
 262 69 l 1
 262 509 l 1
 122 509 l 1
 118 382 l 2xd0
EndSplineSet
EndChar
StartChar: U
Encoding: 85 85 53
Width: 602
Flags: MW
HStem: -16 70<281.5 355 281.5 372> 509 70<61.5 190 78 190 169 173 169 190 403 418 414 440 513 514 513 520>
VStem: 90 79<218 241 241 509> 440 73<232 509>
LayerCount: 2
Fore
SplineSet
90 509 m 1
 86 509 82 509 78 509 c 0
 45 509 31 517 31 544 c 0
 31 577 51 579 90 579 c 2
 190 579 l 2
 231 579 251 578 251 544 c 0
 251 515 233 509 190 509 c 0
 184 509 177 509 169 509 c 1
 169 241 l 2
 169 195 169 156 191 117 c 0
 214 77 257 54 306 54 c 0
 404 54 440 113 440 232 c 2
 440 509 l 1
 431 509 422 509 414 509 c 0
 369 509 350 515 350 544 c 0
 350 575 367 579 403 579 c 2
 511 579 l 2
 519 579 526 579 534 579 c 0
 558 579 569 567 569 544 c 0
 569 517 556 509 520 509 c 0
 518 509 515 509 513 509 c 1
 513 221 l 2
 513 62 443 -16 301 -16 c 0
 175 -16 90 66 90 203 c 2
 90 509 l 1
EndSplineSet
EndChar
StartChar: V
Encoding: 86 86 54
Width: 602
Flags: MW
HStem: -6 20 509 70<42 59 140 140 140 190 190 194 407 468 542 543 542 548>
VStem: 8 586<531 555.5 531 555.5>
LayerCount: 2
Fore
SplineSet
59 509 m 1
 22 509 8 516 8 544 c 0
 8 567 20 579 42 579 c 2
 190 579 l 2
 224 579 239 574 239 544 c 0
 239 520 225 509 194 509 c 2
 140 509 l 1
 306 83 l 1
 468 509 l 1
 403 509 l 2
 372 509 358 520 358 544 c 0
 358 574 373 579 407 579 c 2
 560 579 l 2
 582 579 594 567 594 544 c 0
 594 518 581 509 548 509 c 0
 546 509 544 509 542 509 c 2
 366 49 l 2
 353 14 343 -6 319 -6 c 2
 292 -6 l 2
 259 -6 252 15 239 49 c 2
 59 509 l 1
EndSplineSet
EndChar
StartChar: W
Encoding: 87 87 55
Width: 602
Flags: MW
HStem: 0 20 513 66<29 41 40 46 122 122 122 187 187 191 412 485 553 554 553 559>
VStem: 2 595<535 556.5>
LayerCount: 2
Fore
SplineSet
175 125 m 1
 259 417 l 2
 264 435 268 441 289 441 c 2
 311 441 l 2
 331 441 336 437 342 419 c 2
 437 125 l 1
 485 513 l 1
 408 513 l 2
 379 513 365 523 365 546 c 0
 365 573 380 579 412 579 c 2
 570 579 l 2
 584 579 597 567 597 546 c 0
 597 524 584 513 559 513 c 0
 557 513 555 513 553 513 c 2
 485 25 l 2
 483 8 480 0 466 0 c 2
 431 0 l 2
 416 0 409 6 404 21 c 2
 298 357 l 1
 204 20 l 2
 200 5 195 0 178 0 c 2
 141 0 l 2
 124 0 122 10 120 26 c 2
 46 513 l 2
 44 513 42 513 40 513 c 0
 15 513 2 524 2 546 c 0
 2 567 15 579 29 579 c 2
 187 579 l 2
 219 579 234 573 234 546 c 0
 234 523 220 513 191 513 c 2
 122 513 l 1
 175 125 l 1
EndSplineSet
EndChar
StartChar: X
Encoding: 88 88 56
Width: 602
Flags: MW
HStem: 0 69<68 86 86 86 418 422> 509 70<95 95 190 190 416 416 503 512 512 518>
VStem: 43 516<24.5 46 24.5 46.5>
LayerCount: 2
Fore
SplineSet
95 509 m 1
 67 510 56 520 56 544 c 0
 56 567 67 579 90 579 c 2
 213 579 l 2
 237 579 249 567 249 544 c 0
 249 522 233 508 204 508 c 0
 200 508 195 508 190 509 c 1
 301 352 l 1
 416 509 l 1
 411 508 405 508 401 508 c 0
 368 508 350 522 350 544 c 0
 350 565 365 579 389 579 c 2
 512 579 l 2
 535 579 546 567 546 544 c 0
 546 519 533 509 503 509 c 1
 347 298 l 1
 517 69 l 1
 545 68 559 57 559 35 c 0
 559 14 544 0 522 0 c 2
 392 0 l 2
 362 0 349 6 349 35 c 0
 349 62 363 70 399 70 c 0
 406 70 414 69 422 69 c 1
 297 241 l 1
 174 69 l 1
 183 70 192 70 200 70 c 0
 237 70 252 62 252 35 c 0
 252 6 239 0 209 0 c 2
 79 0 l 2
 57 0 43 14 43 35 c 0
 43 58 57 68 86 69 c 1
 251 295 l 1
 95 509 l 1
EndSplineSet
EndChar
StartChar: Y
Encoding: 89 89 57
Width: 602
Flags: W
HStem: 0 69<163.5 260 189 260 337 408 408 414> 509 70<71 209 89 209 186 189 186 202 423.5 426 426 427 503 504.5 503 511>
VStem: 38 523<530 560 530 560.5> 260 77<69 224 69 231 69 231>
LayerCount: 2
Fore
SplineSet
408 69 m 2xd0
 450 69 467 66 467 35 c 0
 467 5 452 0 414 0 c 2
 182 0 l 2
 145 0 130 5 130 35 c 0
 130 65 145 69 189 69 c 2
 260 69 l 1
 260 231 l 1xd0
 97 509 l 2
 94 509 92 509 89 509 c 0
 53 509 38 516 38 544 c 0
 38 577 58 579 97 579 c 2
 209 579 l 2
 243 579 258 574 258 544 c 0
 258 516 241 509 202 509 c 0
 197 509 192 509 186 509 c 1
 304 297 l 1
 427 509 l 1
 420 509 413 508 407 508 c 0
 372 508 359 517 359 544 c 0
 359 577 374 579 413 579 c 0
 417 579 421 579 426 579 c 2
 503 579 l 2
 544 579 561 576 561 544 c 0x60
 561 516 547 509 511 509 c 0
 508 509 506 509 503 509 c 2
 337 224 l 1
 337 69 l 1
 408 69 l 2xd0
EndSplineSet
EndChar
StartChar: Z
Encoding: 90 90 58
Width: 602
Flags: MW
HStem: 0 69<123 411 184 411 184 444> 509 70<187 187 187 394>
VStem: 90 401
LayerCount: 2
Fore
SplineSet
187 509 m 1
 182 407 l 2
 181 394 181 386 181 384 c 0
 181 360 169 350 144 350 c 0
 120 350 110 363 110 390 c 0
 110 391 110 394 110 399 c 0
 110 402 110 406 110 410 c 2
 116 545 l 2
 117 569 128 579 153 579 c 2
 433 579 l 2
 472 579 491 565 491 537 c 0
 491 522 485 506 473 488 c 2
 184 69 l 1
 411 69 l 1
 416 183 l 2
 418 226 419 241 454 241 c 0
 479 241 489 228 489 199 c 0
 489 193 488 187 488 181 c 2
 481 33 l 2
 480 9 469 0 444 0 c 2
 137 0 l 2
 109 0 90 18 90 44 c 0
 90 60 98 79 114 102 c 2
 394 509 l 1
 187 509 l 1
EndSplineSet
EndChar
StartChar: bracketleft
Encoding: 91 91 59
Width: 602
Flags: MW
HStem: -181 60<226.5 368 286 368 368 369> 519 60<286 368 286 286>
VStem: 202 84<-121 -121 -121 519>
LayerCount: 2
Fore
SplineSet
286 -121 m 1
 368 -121 l 2
 387 -121 400 -132 400 -150 c 0
 400 -169 388 -181 369 -181 c 2
 237 -181 l 2
 216 -181 202 -167 202 -149 c 2
 202 547 l 2
 202 565 216 579 237 579 c 2
 369 579 l 2
 388 579 400 568 400 549 c 0
 400 531 387 519 368 519 c 2
 286 519 l 1
 286 -121 l 1
EndSplineSet
EndChar
StartChar: backslash
Encoding: 92 92 60
Width: 602
Flags: MW
HStem: -55 20 678 20<138 154>
VStem: 114 388
LayerCount: 2
Fore
SplineSet
436 -33 m 2
 118 648 l 2
 115 654 114 660 114 666 c 0
 114 684 129 698 147 698 c 0
 161 698 177 688 182 676 c 2
 497 -1 l 2
 500 -8 502 -15 502 -21 c 0
 502 -40 487 -55 468 -55 c 0
 455 -55 442 -46 436 -33 c 2
EndSplineSet
EndChar
StartChar: bracketright
Encoding: 93 93 61
Width: 602
Flags: MW
HStem: -181 60<223.5 316 234 316 234 364> 519 60<233 234 234 316>
VStem: 316 84<-121 519 519 519>
LayerCount: 2
Fore
SplineSet
316 519 m 1
 234 519 l 2
 215 519 202 531 202 549 c 0
 202 568 214 579 233 579 c 2
 364 579 l 2
 385 579 400 565 400 547 c 2
 400 -149 l 2
 400 -167 385 -181 364 -181 c 2
 233 -181 l 2
 214 -181 202 -169 202 -150 c 0
 202 -132 215 -121 234 -121 c 2
 316 -121 l 1
 316 519 l 1
EndSplineSet
EndChar
StartChar: asciicircum
Encoding: 94 94 62
Width: 602
Flags: MW
HStem: 449 227<146 308.5 293.5 456>
VStem: 127 348<466.5 477.5>
LayerCount: 2
Fore
SplineSet
334 664 m 2
 469 492 l 2
 473 486 475 481 475 474 c 0
 475 459 462 449 450 449 c 0
 445 449 441 450 437 454 c 2
 301 590 l 1
 165 454 l 2
 161 450 157 449 152 449 c 0
 140 449 127 459 127 474 c 0
 127 481 129 486 133 492 c 2
 269 664 l 2
 275 672 286 676 301 676 c 0
 316 676 328 671 334 664 c 2
EndSplineSet
EndChar
StartChar: underscore
Encoding: 95 95 63
Width: 602
Flags: MW
HStem: -299 81<-6.5 602 0 602>
VStem: -22 647<-275 -238 -281.5 -232>
LayerCount: 2
Fore
SplineSet
602 -218 m 2
 617 -218 625 -225 625 -238 c 2
 625 -275 l 2
 625 -288 614 -299 602 -299 c 2
 0 -299 l 2
 -13 -299 -22 -289 -22 -275 c 2
 -22 -238 l 2
 -22 -226 -13 -218 0 -218 c 2
 602 -218 l 2
EndSplineSet
EndChar
StartChar: grave
Encoding: 193 96 123
Width: 602
Flags: MW
HStem: 505 164
VStem: 125 281<531 615.5>
LayerCount: 2
Fore
SplineSet
393 505 m 1
 138 595 l 2
 130 598 125 606 125 614 c 0
 125 617 125 622 127 625 c 2
 143 654 l 2
 148 664 156 669 166 669 c 0
 168 669 171 668 173 667 c 2
 406 531 l 1
 393 505 l 1
EndSplineSet
EndChar
StartChar: a
Encoding: 97 97 65
Width: 602
Flags: W
HStem: -12 74 0 69<442 509 484 509 509 528> 233 63<254 312 220.5 324> 394 69<264.5 336.5>
VStem: 67 78<117.5 166.5 117.5 184.5> 409 75<163 216 216 216 281 284 283.5 290 69 321.5>
LayerCount: 2
Fore
SplineSet
412 62 m 1xac
 359 14 296 -12 229 -12 c 0xac
 131 -12 67 48 67 134 c 0
 67 235 148 296 293 296 c 0
 331 296 369 291 409 281 c 1
 409 282 409 283 409 284 c 0
 409 359 374 394 299 394 c 0
 230 394 190 353 152 353 c 0
 134 353 119 369 119 394 c 0
 119 428 191 463 301 463 c 0
 426 463 484 408 484 290 c 2
 484 69 l 1
 509 69 l 2
 550 69 567 64 567 35 c 0
 567 12 554 0 528 0 c 2
 451 0 l 2x7c
 433 0 421 11 417 32 c 2
 412 62 l 1xac
409 216 m 1
 376 227 342 233 306 233 c 0
 202 233 145 194 145 139 c 0
 145 96 184 63 241 63 c 0
 329 63 409 119 409 163 c 2
 409 216 l 1
EndSplineSet
EndChar
StartChar: b
Encoding: 98 98 66
Width: 602
Flags: W
HStem: -9 77<300 372.5 281.5 399.5> 0 69<60 101 91 101 91 162> 380 71<301.5 372.5> 570 69<73 82.5>
VStem: 101 74<381 381 381 569 569 569> 481 84<177.5 268.5>
LayerCount: 2
Fore
SplineSet
175 381 m 1x58
 212 427 267 451 336 451 c 0
 467 451 565 350 565 221 c 0
 565 94 465 -9 334 -9 c 0xac
 266 -9 215 15 182 64 c 1
 182 25 l 2
 182 8 177 0 162 0 c 2
 73 0 l 2
 47 0 34 12 34 35 c 0
 34 63 51 69 91 69 c 0
 94 69 97 69 101 69 c 1
 101 569 l 1
 94 569 86 570 79 570 c 0
 48 570 34 579 34 604 c 0
 34 627 47 639 73 639 c 2
 147 639 l 2
 166 639 175 633 175 619 c 2
 175 381 l 1x58
327 68 m 0xac
 418 68 481 131 481 224 c 0
 481 313 418 380 327 380 c 0
 237 380 173 315 173 224 c 0
 173 134 236 68 327 68 c 0xac
EndSplineSet
EndChar
StartChar: c
Encoding: 99 99 67
Width: 602
Flags: MW
HStem: -12 73<249 319.5 249 354> 387 76<253.5 319.5 224 333>
VStem: 48 85<177.5 273 177.5 292.5>
LayerCount: 2
Fore
SplineSet
521 304 m 2
 521 280 508 268 484 268 c 0
 463 268 453 280 438 307 c 0
 408 360 362 387 304 387 c 0
 203 387 133 320 133 226 c 0
 133 129 198 61 300 61 c 0
 339 61 379 74 414 97 c 0
 444 117 463 141 489 141 c 0
 509 141 523 127 523 107 c 0
 523 61 413 -12 295 -12 c 0
 153 -12 48 90 48 225 c 0
 48 360 154 463 294 463 c 0
 345 463 394 449 448 422 c 1
 448 423 448 424 448 424 c 2
 448 446 461 455 486 455 c 0
 516 455 521 437 521 395 c 2
 521 304 l 2
EndSplineSet
EndChar
StartChar: d
Encoding: 100 100 68
Width: 602
Flags: W
HStem: -12 77 0 69<440.5 531 509 531 531 541> 380 72<236 309.5 210 327.5> 569 70<386 409 409 435>
VStem: 44 84<173 267.5 173 285.5> 435 74<382 569 569 569>
LayerCount: 2
Fore
SplineSet
128 219 m 0xa8
 128 127 194 66 281 66 c 0
 371 66 436 134 436 224 c 0
 436 314 373 380 282 380 c 0
 190 380 128 316 128 219 c 0xa8
448 0 m 2x7c
 433 0 429 8 429 25 c 2
 429 65 l 1
 390 16 330 -12 261 -12 c 0xa8
 138 -12 44 84 44 221 c 0
 44 350 144 452 276 452 c 0
 343 452 397 429 435 382 c 1
 435 569 l 1
 409 569 l 2
 363 569 342 572 342 604 c 0
 342 627 355 639 381 639 c 2
 481 639 l 2
 500 639 509 633 509 619 c 2
 509 69 l 1
 516 69 524 69 531 69 c 0
 562 69 576 60 576 35 c 0
 576 13 562 0 541 0 c 2
 448 0 l 2x7c
EndSplineSet
EndChar
StartChar: e
Encoding: 101 101 69
Width: 602
Flags: MW
HStem: -12 69<252.5 329> 204 64<136 456 138 456 138 464> 397 67<263 345.5>
VStem: 51 494<227 297>
LayerCount: 2
Fore
SplineSet
138 268 m 1
 456 268 l 1
 447 346 385 397 306 397 c 0
 220 397 157 349 138 268 c 1
136 204 m 1
 141 110 202 57 303 57 c 0
 402 57 465 118 509 118 c 0
 528 118 543 104 543 86 c 0
 543 66 529 51 500 37 c 0
 433 4 362 -12 296 -12 c 0
 145 -12 51 81 51 227 c 0
 51 367 155 464 306 464 c 0
 454 464 545 359 545 250 c 0
 545 204 524 204 464 204 c 2
 136 204 l 1
EndSplineSet
EndChar
StartChar: f
Encoding: 102 102 70
Width: 602
Flags: W
HStem: 0 70<132 134 134 215 291 451 451 453> 368 71<133 134 134 211 133 215 291 291 291 459 459 461> 567 73<353 411.5>
VStem: 209 78<468.5 502 462.5 532.5> 215 76<70 368 70 368>
LayerCount: 2
Fore
SplineSet
451 70 m 2xc8
 478 70 492 58 492 35 c 0
 492 12 479 0 453 0 c 2
 134 0 l 2
 107 0 93 12 93 35 c 0
 93 58 107 70 132 70 c 2
 215 70 l 1
 215 368 l 1xc8
 134 368 l 2
 107 368 94 381 94 404 c 0
 94 427 107 439 133 439 c 2
 211 439 l 1
 210 451 209 463 209 474 c 0
 209 591 274 640 423 640 c 0
 494 640 530 625 530 590 c 0
 530 569 513 555 490 555 c 0
 466 555 433 567 390 567 c 0
 316 567 287 537 287 467 c 0x70
 287 458 287 449 288 439 c 1
 459 439 l 2
 486 439 500 427 500 404 c 0
 500 381 486 368 461 368 c 2
 291 368 l 1
 291 70 l 1
 451 70 l 2xc8
EndSplineSet
EndChar
StartChar: g
Encoding: 103 103 71
Width: 602
Flags: W
HStem: -195 76<280 321.5> 20 75<244 308.5> 379 73<244.5 306 222 330> 382 70
VStem: 66 76<196 279 196 300> 426 73<28 87 87 87>
LayerCount: 2
Fore
SplineSet
499 26 m 2xdc
 499 22 499 19 499 15 c 0
 499 -40 498 -83 469 -121 c 0
 433 -168 367 -195 276 -195 c 0
 204 -195 169 -182 169 -150 c 0
 169 -130 188 -112 211 -112 c 0
 240 -112 267 -119 293 -119 c 0
 395 -119 426 -73 426 28 c 2
 426 87 l 1
 386 41 340 20 277 20 c 0
 156 20 66 109 66 237 c 0
 66 363 163 452 281 452 c 0
 331 452 378 433 425 396 c 1
 425 431 l 2
 425 445 434 451 453 451 c 2
 527 451 l 2
 553 451 566 440 566 417 c 0
 566 389 549 382 508 382 c 0
 505 382 502 382 499 382 c 1
 499 26 l 2xdc
287 379 m 0x68
 202 379 142 321 142 237 c 0
 142 155 201 95 287 95 c 0
 372 95 432 154 432 237 c 0
 432 319 373 379 287 379 c 0x68
EndSplineSet
EndChar
StartChar: h
Encoding: 104 104 72
Width: 602
Flags: MW
HStem: 0 69<76 117 107 117 190 194 401 420 494 515 515 522> 389 75<308.5 349> 569 70<113.5 117>
VStem: 117 74<398 569 569 569> 420 74<69 272 272 290 69 311>
LayerCount: 2
Fore
SplineSet
117 69 m 1
 117 569 l 1
 110 569 102 570 95 570 c 0
 64 570 50 579 50 604 c 0
 50 627 63 639 89 639 c 2
 163 639 l 2
 182 639 191 631 191 619 c 2
 191 398 l 1
 238 442 283 464 334 464 c 0
 427 464 494 403 494 290 c 2
 494 69 l 1
 501 69 508 69 515 69 c 0
 546 69 561 60 561 35 c 0
 561 12 548 0 522 0 c 2
 392 0 l 2
 363 0 353 7 353 35 c 0
 353 62 366 69 401 69 c 0
 406 69 411 69 420 69 c 1
 420 272 l 2
 420 350 381 389 317 389 c 0
 258 389 190 345 190 272 c 2
 190 69 l 1
 198 69 205 70 211 70 c 0
 245 70 258 62 258 35 c 0
 258 7 248 0 219 0 c 2
 89 0 l 2
 63 0 50 12 50 35 c 0
 50 63 67 69 107 69 c 0
 110 69 113 69 117 69 c 1
EndSplineSet
EndChar
StartChar: j
Encoding: 106 106 74
Width: 602
Flags: W
HStem: -193 77<231 282.5> 382 69<154 163.5 161 186 186 377> 544 128<348.5 392.5>
VStem: 319 100<580.5 624.5> 377 74<31 67 67 382 382 382>
LayerCount: 2
Fore
SplineSet
451 67 m 2xc8
 451 -5 450 -55 437 -88 c 0
 412 -152 338 -193 227 -193 c 0
 155 -193 120 -179 120 -147 c 0
 120 -127 139 -109 162 -109 c 0
 191 -109 218 -116 244 -116 c 0
 346 -116 377 -70 377 31 c 2
 377 382 l 1
 186 382 l 2
 175 382 166 382 161 382 c 0
 129 382 115 392 115 417 c 0
 115 440 128 451 154 451 c 2
 423 451 l 2
 442 451 451 443 451 431 c 2
 451 398 l 1
 451 67 l 2xc8
319 592 m 0x30
 319 657 325 672 370 672 c 0
 415 672 419 657 419 606 c 0
 419 555 416 544 369 544 c 0
 328 544 319 552 319 592 c 0x30
EndSplineSet
EndChar
StartChar: k
Encoding: 107 107 75
Width: 602
Flags: MW
HStem: 0 69<80 138 115 138 115 183> 382 69 569 70<95.5 118 118 138>
VStem: 138 74<69 187 269 569 569 569>
LayerCount: 2
Fore
SplineSet
212 187 m 1
 212 43 l 2
 212 15 199 0 183 0 c 2
 93 0 l 2
 67 0 53 12 53 35 c 0
 53 65 72 69 115 69 c 2
 138 69 l 1
 138 569 l 1
 118 569 l 2
 73 569 52 572 52 604 c 0
 52 627 65 639 91 639 c 2
 184 639 l 2
 203 639 212 631 212 619 c 2
 212 269 l 1
 353 387 l 1
 332 396 322 407 322 422 c 0
 322 441 336 451 364 451 c 2
 496 451 l 2
 521 451 534 440 534 418 c 0
 534 384 510 387 472 382 c 0
 448 379 415 362 380 332 c 2
 309 270 l 1
 493 70 l 1
 536 70 l 2
 564 70 575 60 575 35 c 0
 575 12 561 0 536 0 c 2
 404 0 l 2
 376 0 363 9 363 31 c 0
 363 49 376 61 401 69 c 1
 256 227 l 1
 212 187 l 1
EndSplineSet
EndChar
StartChar: l
Encoding: 108 108 76
Width: 602
Flags: MW
HStem: 0 69<118 268 133 268 342 491> 569 70<179.5 185 185 268>
VStem: 268 74<69 569 569 569>
LayerCount: 2
Fore
SplineSet
268 569 m 1
 185 569 l 2
 174 569 165 570 160 570 c 0
 128 570 114 579 114 604 c 0
 114 627 127 639 153 639 c 2
 314 639 l 2
 333 639 342 631 342 619 c 2
 342 69 l 1
 494 69 l 2
 519 69 531 59 531 35 c 0
 531 7 520 0 491 0 c 2
 131 0 l 2
 105 0 92 12 92 35 c 0
 92 58 106 69 133 69 c 2
 268 69 l 1
 268 569 l 1
EndSplineSet
EndChar
StartChar: m
Encoding: 109 109 77
Width: 602
Flags: W
HStem: 0 70<159 169> 382 69<39 49.5 46 68> 389 75<217 231.5 410.5 450.5>
VStem: 68 73<69 338 69 382 69 382> 277 70<53 272 69 272 69 272 69 310 69 335> 479 75<69 272 272 290 69 309>
LayerCount: 2
Fore
SplineSet
479 272 m 2xac
 479 346 475 389 426 389 c 0
 381 389 347 350 347 272 c 2
 347 69 l 1
 350 69 353 69 356 69 c 0
 393 69 407 63 407 35 c 0
 407 12 396 0 373 0 c 2
 311 0 l 2
 279 0 277 15 277 53 c 0
 277 57 277 61 277 66 c 2
 277 272 l 2
 277 291 277 304 277 310 c 0
 277 360 250 389 213 389 c 0xac
 183 389 159 372 141 338 c 1
 141 69 l 1
 149 69 156 70 162 70 c 0
 196 70 209 62 209 35 c 0
 209 7 198 0 169 0 c 2
 39 0 l 2
 13 0 1 12 1 35 c 0
 1 63 18 69 58 69 c 0
 61 69 64 69 68 69 c 1
 68 382 l 1
 61 382 53 382 46 382 c 0
 15 382 1 392 1 417 c 0
 1 440 13 451 39 451 c 2
 114 451 l 2xd0
 135 451 140 446 142 422 c 1
 168 451 198 464 236 464 c 0
 281 464 311 444 325 404 c 1
 352 444 387 464 434 464 c 0
 524 464 554 404 554 290 c 2
 554 69 l 1
 557 69 560 69 563 69 c 0
 600 69 614 63 614 35 c 0
 614 12 602 0 579 0 c 2
 520 0 l 2
 493 0 479 17 479 49 c 2
 479 272 l 2xac
EndSplineSet
EndChar
StartChar: n
Encoding: 110 110 78
Width: 602
Flags: W
HStem: 0 69<79 119 109 119 109 119 192 196 403 419 495 511> 382 69<81.5 165 97 165> 389 75<310.5 351>
VStem: 119 73<0 272 69 272 69 382> 419 76<69 272 272 290 69 311>
LayerCount: 2
Fore
SplineSet
119 69 m 1xb8
 119 382 l 1
 112 382 104 382 97 382 c 0
 66 382 52 392 52 417 c 0
 52 451 74 451 119 451 c 2
 165 451 l 2xd0
 184 451 193 443 193 431 c 2
 193 398 l 1
 240 442 285 464 336 464 c 0
 429 464 495 403 495 290 c 2
 495 69 l 1
 502 69 510 69 517 69 c 0
 548 69 563 60 563 35 c 0
 563 7 546 0 511 0 c 2
 403 0 l 2
 368 0 354 3 354 35 c 0
 354 62 368 69 403 69 c 0
 408 69 413 69 419 69 c 1
 419 272 l 2
 419 350 383 389 319 389 c 0
 260 389 192 345 192 272 c 2
 192 69 l 1
 200 69 207 70 213 70 c 0
 247 70 260 62 260 35 c 0
 260 2 245 0 208 0 c 2
 119 0 l 2
 115 0 106 0 93 0 c 0
 65 0 52 12 52 35 c 0
 52 63 69 69 109 69 c 0
 112 69 115 69 119 69 c 1xb8
EndSplineSet
EndChar
StartChar: o
Encoding: 111 111 79
Width: 602
Flags: MW
HStem: -12 68<250.5 351.5 250.5 378.5> 395 67<250.5 351.5>
VStem: 45 85<176.5 273.5 176.5 293> 472 84<176 273.5>
LayerCount: 2
Fore
SplineSet
556 225 m 0
 556 89 456 -12 301 -12 c 0
 146 -12 45 89 45 225 c 0
 45 361 146 462 301 462 c 0
 456 462 556 360 556 225 c 0
301 56 m 0
 402 56 472 127 472 225 c 0
 472 322 402 395 301 395 c 0
 200 395 130 322 130 225 c 0
 130 128 200 56 301 56 c 0
EndSplineSet
EndChar
StartChar: p
Encoding: 112 112 80
Width: 602
Flags: W
HStem: -195 70<59 101 92 101 174 288> -1 72<308.5 371 280.5 407> 377 75<304 372> 382 70
VStem: 101 73<-125 70> 481 84<178.5 268>
LayerCount: 2
Fore
SplineSet
326 71 m 0x64
 416 71 481 133 481 224 c 0
 481 312 418 377 326 377 c 0
 235 377 172 312 172 224 c 0
 172 136 235 71 326 71 c 0x64
174 -125 m 1xdc
 292 -125 l 2
 317 -125 329 -137 329 -160 c 0
 329 -187 317 -195 288 -195 c 2
 72 -195 l 2
 46 -195 33 -183 33 -160 c 0
 33 -132 51 -125 92 -125 c 0
 95 -125 98 -125 101 -125 c 1
 101 382 l 1
 94 382 86 382 79 382 c 0
 48 382 33 392 33 417 c 0
 33 440 46 451 72 451 c 2
 147 451 l 2
 166 451 175 445 175 431 c 2
 175 384 l 1
 219 429 273 452 335 452 c 0
 463 452 565 356 565 219 c 0
 565 89 471 -1 343 -1 c 0
 274 -1 214 24 174 70 c 1
 174 -125 l 1xdc
EndSplineSet
EndChar
StartChar: q
Encoding: 113 113 81
Width: 602
Flags: W
HStem: -195 70<313 316 316 430 504 525 525 532> -1 72<233 295.5> 377 75<232 301 206 323.5> 382 69<504 513 504 505.5>
VStem: 39 85<178.5 268 178.5 287.5> 430 74<-125 70 70 70 -125 431 -125 438>
LayerCount: 2
Fore
SplineSet
430 -125 m 1xd4
 430 70 l 1
 390 24 330 -1 261 -1 c 0
 133 -1 39 89 39 219 c 0
 39 356 142 452 270 452 c 0xec
 332 452 386 429 430 384 c 1
 430 431 l 2
 430 445 439 451 458 451 c 2
 532 451 l 2
 558 451 571 440 571 417 c 0
 571 389 554 382 513 382 c 0
 510 382 507 382 504 382 c 1
 504 -125 l 1
 511 -125 518 -125 525 -125 c 0
 556 -125 571 -135 571 -160 c 0
 571 -183 558 -195 532 -195 c 2
 316 -195 l 2
 287 -195 275 -187 275 -160 c 0
 275 -137 288 -125 313 -125 c 2
 430 -125 l 1xd4
124 224 m 0xfc
 124 133 188 71 278 71 c 0
 369 71 432 136 432 224 c 0
 432 312 369 377 278 377 c 0
 186 377 124 312 124 224 c 0xfc
EndSplineSet
EndChar
StartChar: r
Encoding: 114 114 82
Width: 602
Flags: W
HStem: 0 69<80 180 94 180 253 412> 382 69<115 124.5 122 147 147 180> 384 79<419 446>
VStem: 180 73<69 271 348 382 382 382>
LayerCount: 2
Fore
SplineSet
253 69 m 1xb0
 415 69 l 2
 440 69 452 59 452 35 c 0
 452 7 441 0 412 0 c 2
 93 0 l 2
 67 0 53 12 53 35 c 0
 53 58 67 69 94 69 c 2
 180 69 l 1
 180 382 l 1
 147 382 l 2
 136 382 127 382 122 382 c 0
 90 382 76 392 76 417 c 0
 76 440 89 451 115 451 c 2
 226 451 l 2xd0
 244 451 253 445 253 431 c 2
 253 348 l 1
 314 425 380 463 458 463 c 0
 519 463 555 436 555 400 c 0
 555 376 533 354 512 354 c 0
 486 354 465 384 427 384 c 0
 373 384 318 345 253 271 c 1
 253 69 l 1xb0
EndSplineSet
EndChar
StartChar: s
Encoding: 115 115 83
Width: 602
Flags: MW
HStem: -11 63<299 351.5 283 382> 192 79 402 62<233.5 291.5>
VStem: 89 75<304 349.5 304 367.5> 431 81<106 153>
LayerCount: 2
Fore
SplineSet
87 35 m 2
 87 122 l 2
 87 148 96 162 122 162 c 0
 152 162 149 135 168 110 c 0
 194 76 250 52 316 52 c 0
 387 52 431 84 431 128 c 0
 431 178 395 192 321 192 c 0
 316 192 307 192 293 192 c 0
 160 192 89 240 89 327 c 0
 89 408 156 464 277 464 c 0
 348 464 387 442 401 442 c 0
 415 442 425 461 451 461 c 0
 473 461 484 445 484 412 c 2
 484 355 l 2
 484 323 475 306 451 306 c 0
 429 306 419 331 390 357 c 0
 353 390 317 402 266 402 c 0
 201 402 164 369 164 330 c 0
 164 278 220 273 316 271 c 0
 445 268 512 230 512 134 c 0
 512 50 443 -11 321 -11 c 0
 277 -11 228 -3 173 11 c 1
 150 -4 134 -12 123 -12 c 0
 100 -12 87 4 87 35 c 2
EndSplineSet
EndChar
StartChar: t
Encoding: 116 116 84
Width: 602
Flags: MW
HStem: -9 71<300.5 361> 355 69<69.5 165 111 165 111 165 242 434 434 439>
VStem: 165 76<177 192 192 355>
LayerCount: 2
Fore
SplineSet
434 424 m 2
 465 424 480 414 480 389 c 0
 480 366 466 355 439 355 c 2
 241 355 l 1
 241 192 l 2
 241 114 247 62 333 62 c 0
 412 62 477 114 516 114 c 0
 534 114 550 97 550 79 c 0
 550 56 532 42 496 28 c 0
 435 4 384 -9 338 -9 c 0
 263 -9 211 15 183 64 c 0
 166 93 165 132 165 177 c 0
 165 182 165 187 165 192 c 2
 165 355 l 1
 83 355 l 2
 56 355 44 365 44 389 c 0
 44 421 64 424 111 424 c 2
 165 424 l 1
 165 524 l 2
 165 528 165 537 165 550 c 0
 165 577 177 591 203 591 c 0
 238 591 242 571 242 523 c 2
 242 424 l 1
 434 424 l 2
EndSplineSet
EndChar
StartChar: u
Encoding: 117 117 85
Width: 602
Flags: W
HStem: -10 72<249 293.5> 0 69<434.5 512 490 512 512 518> 382 69<75 84.5 81 103 352 416>
VStem: 103 74<162 180 180 382 382 382> 416 74<20 404 53 404 180 382 382 382>
LayerCount: 2
Fore
SplineSet
177 180 m 2xb8
 177 100 211 62 287 62 c 0xb8
 353 62 416 108 416 180 c 2
 416 382 l 1
 349 382 l 2
 323 382 313 393 313 417 c 0
 313 441 325 451 352 451 c 2
 456 451 l 2
 490 451 490 433 490 404 c 2
 490 69 l 1
 497 69 505 69 512 69 c 0
 543 69 557 60 557 35 c 0
 557 12 544 0 518 0 c 2
 444 0 l 2x68
 425 0 416 8 416 20 c 2
 416 53 l 1
 365 13 323 -10 264 -10 c 0
 157 -10 103 48 103 162 c 2
 103 382 l 1
 96 382 88 382 81 382 c 0
 50 382 36 392 36 417 c 0
 36 440 49 451 75 451 c 2
 149 451 l 2
 176 451 177 441 177 419 c 0
 177 417 177 416 177 414 c 2
 177 180 l 2xb8
EndSplineSet
EndChar
StartChar: v
Encoding: 118 118 86
Width: 602
Flags: MW
HStem: -17 20 382 69<60 77 168 171 168 186 430.5 436 514 515.5 514 523>
VStem: 21 558<403 428.5>
LayerCount: 2
Fore
SplineSet
77 382 m 1
 37 382 21 389 21 417 c 0
 21 440 34 451 60 451 c 2
 197 451 l 2
 229 451 243 446 243 417 c 0
 243 389 226 382 186 382 c 0
 180 382 174 382 168 382 c 1
 295 66 l 1
 436 382 l 1
 425 382 416 381 407 381 c 0
 361 381 343 388 343 417 c 0
 343 446 357 451 389 451 c 2
 540 451 l 2
 566 451 579 440 579 417 c 0
 579 389 562 382 523 382 c 0
 520 382 517 382 514 382 c 2
 353 26 l 2
 339 -5 329 -17 294 -17 c 0
 261 -17 250 -4 237 26 c 2
 77 382 l 1
EndSplineSet
EndChar
StartChar: w
Encoding: 119 119 87
Width: 602
Flags: MW
HStem: -17 20 382 69<28 34 111 111 490 490 561 573 573 576.5>
VStem: -9 612<404 428>
LayerCount: 2
Fore
SplineSet
297 248 m 1
 235 16 l 2
 229 -7 216 -17 194 -17 c 0
 165 -17 155 -4 146 26 c 2
 34 382 l 1
 3 382 -9 391 -9 417 c 0
 -9 439 3 451 28 451 c 2
 159 451 l 2
 190 451 203 446 203 417 c 0
 203 388 186 381 143 381 c 0
 133 381 123 381 111 382 c 1
 195 89 l 1
 258 302 l 2
 265 325 276 335 299 335 c 0
 328 335 338 322 347 292 c 2
 408 89 l 1
 490 382 l 1
 477 381 466 381 456 381 c 0
 415 381 399 388 399 417 c 0
 399 445 411 451 442 451 c 2
 573 451 l 2
 592 451 603 440 603 417 c 0
 603 391 592 382 561 382 c 1
 451 16 l 2
 444 -8 433 -17 410 -17 c 0
 381 -17 371 -4 362 26 c 2
 297 248 l 1
EndSplineSet
EndChar
StartChar: x
Encoding: 120 120 88
Width: 602
Flags: MW
HStem: 0 69<65 106 96 106 194 196.5 402 408 408 429> 382 69<84 212 102 212 206 212 212 224.5 397 403 401 411 493 495.5>
VStem: 41 526<25 45 19.5 48>
LayerCount: 2
Fore
SplineSet
194 69 m 1
 199 69 203 70 208 70 c 0
 241 70 260 56 260 34 c 0
 260 10 242 0 209 0 c 2
 75 0 l 2
 55 0 41 13 41 37 c 0
 41 59 60 69 96 69 c 0
 99 69 102 69 106 69 c 2
 264 231 l 1
 109 382 l 2
 107 382 104 382 102 382 c 0
 66 382 52 390 52 416 c 0
 52 445 69 451 112 451 c 2
 212 451 l 2
 246 451 262 441 262 416 c 0
 262 393 243 382 206 382 c 1
 311 279 l 1
 411 382 l 1
 408 382 405 382 401 382 c 0
 365 382 347 393 347 416 c 0
 347 441 363 451 397 451 c 2
 524 451 l 2
 544 451 558 438 558 417 c 0
 558 392 541 381 507 381 c 0
 503 381 498 382 493 382 c 2
 353 236 l 1
 524 69 l 2
 526 69 528 69 529 69 c 0
 554 69 567 56 567 34 c 0
 567 5 551 0 508 0 c 2
 408 0 l 2
 375 0 358 10 358 34 c 0
 358 55 373 69 402 69 c 2
 429 69 l 1
 306 189 l 1
 194 69 l 1
EndSplineSet
EndChar
StartChar: y
Encoding: 121 121 89
Width: 602
Flags: MW
HStem: -195 70<78 82 82 184 264 285 285 306> 382 69<68 85 175 178 175 193 410 426 423 442 521 521>
VStem: 29 541<404 428.5 404 428.5>
LayerCount: 2
Fore
SplineSet
264 -125 m 1
 272 -125 279 -125 285 -125 c 0
 328 -125 346 -131 346 -160 c 0
 346 -183 332 -195 306 -195 c 2
 82 -195 l 2
 53 -195 41 -187 41 -160 c 0
 41 -137 53 -125 78 -125 c 2
 184 -125 l 1
 264 31 l 1
 85 382 l 1
 45 382 29 389 29 417 c 0
 29 440 42 451 68 451 c 2
 204 451 l 2
 236 451 250 446 250 417 c 0
 250 389 233 382 193 382 c 0
 187 382 181 382 175 382 c 1
 306 113 l 1
 442 382 l 1
 435 382 429 382 423 382 c 0
 381 382 364 389 364 417 c 0
 364 446 378 451 410 451 c 2
 531 451 l 2
 557 451 570 440 570 417 c 0
 570 391 555 383 521 382 c 1
 264 -125 l 1
EndSplineSet
EndChar
StartChar: z
Encoding: 122 122 90
Width: 602
Flags: MW
HStem: 0 69<135.5 438 195 438 195 449> 382 69<179 412 179 179>
VStem: 109 70<334 357 357 382 334 412 334 426> 438 69<69 94 94 117>
LayerCount: 2
Fore
SplineSet
195 69 m 1
 438 69 l 1
 438 94 l 2
 438 140 441 161 473 161 c 0
 496 161 507 148 507 122 c 2
 507 41 l 2
 507 8 487 0 449 0 c 2
 154 0 l 2
 117 0 98 15 98 44 c 0
 98 68 113 83 133 103 c 2
 412 382 l 1
 179 382 l 1
 179 357 l 2
 179 311 176 290 144 290 c 0
 121 290 109 303 109 329 c 2
 109 412 l 2
 109 440 132 451 177 451 c 2
 438 451 l 2
 484 451 507 434 507 402 c 0
 507 383 492 359 463 331 c 2
 195 69 l 1
EndSplineSet
EndChar
StartChar: braceleft
Encoding: 123 123 91
Width: 602
Flags: MW
HStem: -183 20 561 20<364 441>
VStem: 275 82<13 34 -40 44 -40 92.5 353 363 363 384 384 409>
LayerCount: 2
Fore
SplineSet
357 409 m 2
 357 363 l 2
 357 270 343 221 268 199 c 1
 343 176 357 126 357 34 c 2
 357 -12 l 2
 357 -68 360 -93 406 -104 c 0
 433 -111 467 -104 467 -144 c 0
 467 -169 453 -183 425 -183 c 0
 299 -183 275 -116 275 13 c 2
 275 44 l 2
 275 141 243 148 179 159 c 0
 152 164 143 175 143 199 c 0
 143 221 153 231 173 236 c 0
 232 251 275 243 275 353 c 2
 275 384 l 2
 275 515 298 581 430 581 c 0
 452 581 467 566 467 542 c 0
 467 505 439 509 412 504 c 0
 362 495 357 465 357 409 c 2
EndSplineSet
EndChar
StartChar: braceright
Encoding: 125 125 93
Width: 602
Flags: MW
HStem: -183 20 561 20<169 246>
VStem: 253 82<-12 13 13 34 34 44 -51.5 80 363 384>
LayerCount: 2
Fore
SplineSet
253 409 m 2
 253 464 250 490 204 502 c 0
 178 509 143 502 143 542 c 0
 143 566 158 581 180 581 c 0
 312 581 335 515 335 384 c 2
 335 353 l 2
 335 243 378 251 437 236 c 0
 457 231 467 221 467 199 c 0
 467 175 458 164 431 159 c 0
 367 148 335 141 335 44 c 2
 335 13 l 2
 335 -116 312 -183 186 -183 c 0
 158 -183 143 -169 143 -144 c 0
 143 -108 170 -110 198 -105 c 0
 249 -96 253 -69 253 -12 c 2
 253 34 l 2
 253 126 267 176 342 199 c 1
 267 221 253 270 253 363 c 2
 253 409 l 2
EndSplineSet
EndChar
StartChar: exclamdown
Encoding: 161 161 95
Width: 602
Flags: W
HStem: -28 20 372 20<289.5 312.5> 441 154<273.5 329 273.5 329>
VStem: 210 182<495 539> 244 114<33 34 34 38 37 38>
LayerCount: 2
Fore
SplineSet
210 517 m 0x30
 210 561 246 595 301 595 c 0
 357 595 392 562 392 517 c 0
 392 473 357 441 301 441 c 0
 245 441 210 473 210 517 c 0x30
244 38 m 2xc8
 261 355 l 2
 262 376 278 392 301 392 c 0
 324 392 340 376 341 355 c 2
 358 38 l 2
 358 36 358 35 358 33 c 0
 358 -5 336 -28 301 -28 c 0
 266 -28 244 -5 244 33 c 0
 244 35 244 36 244 38 c 2xc8
EndSplineSet
EndChar
StartChar: cent
Encoding: 162 162 96
Width: 602
Flags: MW
HStem: -33 20 103 67<322 322> 453 63<271 337> 626 20<299.5 322>
VStem: 94 79<269 350.5 269 362.5>
LayerCount: 2
Fore
SplineSet
426 489 m 1
 437 495 446 499 458 499 c 0
 485 499 490 484 490 450 c 2
 490 380 l 2
 490 359 478 348 456 348 c 0
 435 348 428 365 413 393 c 0
 391 435 362 453 312 453 c 0
 230 453 173 390 173 311 c 0
 173 227 230 170 319 170 c 0
 399 170 431 219 462 219 c 0
 480 219 492 207 492 190 c 0
 492 154 426 111 322 103 c 1
 314 -5 l 2
 313 -25 302 -33 281 -33 c 0
 258 -33 247 -25 247 -6 c 2
 247 -6 247 -5 247 -4 c 2
 253 109 l 1
 156 130 94 213 94 310 c 0
 94 415 162 497 271 516 c 1
 277 618 l 2
 278 637 289 646 310 646 c 0
 334 646 345 638 345 619 c 2
 345 619 345 618 345 617 c 2
 339 516 l 1
 372 510 401 502 426 489 c 1
EndSplineSet
EndChar
StartChar: sterling
Encoding: 163 163 97
Width: 602
Flags: W
HStem: 0 74<375 414.5 375 425> 24 69<268 277 277 279> 275 55<143 146 146 173 143 188 269 425 425 429 269 269> 568 56<294.5 344>
VStem: 148 77<459 506 459 513.5> 213 75<160 176>
LayerCount: 2
Fore
SplineSet
269 275 m 1xb8
 281 233 288 200 288 173 c 0
 288 147 282 121 268 93 c 1
 271 93 274 93 277 93 c 0x64
 320 93 357 74 393 74 c 0
 436 74 457 104 468 104 c 0
 474 104 479 101 482 96 c 2
 497 69 l 2
 499 65 501 62 501 59 c 0
 501 44 454 0 396 0 c 0xb8
 348 0 302 24 256 24 c 0
 210 24 181 -4 155 -4 c 0
 142 -4 130 15 130 28 c 0
 130 41 150 47 174 65 c 0
 197 82 213 116 213 160 c 0x64
 213 192 203 229 188 275 c 1
 146 275 l 2
 134 275 127 283 127 294 c 2
 127 316 l 2
 127 326 132 330 143 330 c 2
 173 330 l 1
 158 379 148 424 148 468 c 0
 148 559 215 624 312 624 c 0
 378 624 433 603 454 585 c 0
 461 579 461 569 461 552 c 2
 461 524 l 2
 461 503 448 486 431 486 c 0
 404 486 406 511 396 536 c 0
 388 555 362 568 326 568 c 0
 263 568 225 536 225 476 c 0
 225 442 234 393 252 330 c 1
 425 330 l 2
 440 330 446 325 446 311 c 2
 446 294 l 2
 446 282 440 275 429 275 c 2
 269 275 l 1xb8
EndSplineSet
EndChar
StartChar: currency
Encoding: 168 164 102
Width: 602
Flags: MW
HStem: 242 50<282 325.5> 573 49<282.5 325.5 282.5 343>
VStem: 114 50<411 453> 445 48<411.5 453 411.5 471>
LayerCount: 2
Fore
SplineSet
164 432 m 0
 164 355 226 292 304 292 c 0
 381 292 445 355 445 432 c 0
 445 510 382 573 304 573 c 0
 226 573 164 509 164 432 c 0
60 224 m 1
 153 316 l 1
 127 351 114 390 114 432 c 0
 114 474 127 512 153 547 c 1
 60 640 l 1
 95 675 l 1
 188 582 l 1
 222 609 261 622 304 622 c 0
 347 622 385 609 420 582 c 1
 512 675 l 1
 547 640 l 1
 454 547 l 1
 480 512 493 474 493 432 c 0
 493 391 481 352 454 316 c 1
 547 224 l 1
 512 189 l 1
 420 282 l 1
 385 255 347 242 304 242 c 0
 260 242 222 255 188 282 c 1
 95 189 l 1
 60 224 l 1
EndSplineSet
EndChar
StartChar: yen
Encoding: 165 165 99
Width: 602
Flags: W
HStem: 0 69<163.5 262 189 262 336 408 408 414> 228 51<336 510 365 510 365 510> 364 51<69.5 155 84 155 84 182 447 510> 509 70<72 209 97 100 177 180.5 177 196 432.5 437 503 504.5 503 511>
VStem: 38 523<530 560 530 560.5> 262 74<69 228 69 228>
LayerCount: 2
Fore
SplineSet
408 69 m 2xf4
 450 69 467 66 467 35 c 0
 467 5 452 0 414 0 c 2
 182 0 l 2
 145 0 130 5 130 35 c 0
 130 65 145 69 189 69 c 2
 262 69 l 1
 262 228 l 1xf4
 84 228 l 2
 55 228 40 232 40 254 c 0
 40 274 55 280 84 280 c 2
 233 280 l 1
 182 364 l 1
 84 364 l 2
 55 364 40 367 40 389 c 0
 40 409 55 415 84 415 c 2
 155 415 l 1
 100 509 l 2
 97 509 94 509 91 509 c 0
 53 509 38 516 38 544 c 0
 38 577 58 579 97 579 c 2
 209 579 l 2
 243 579 258 574 258 544 c 0
 258 516 239 509 196 509 c 0
 190 509 184 509 177 509 c 1
 304 285 l 1
 437 509 l 1
 428 509 420 508 412 508 c 0
 373 508 359 516 359 544 c 0
 359 577 374 579 413 579 c 0
 417 579 421 579 426 579 c 2
 503 579 l 2
 544 579 561 576 561 544 c 0x78
 561 516 547 509 511 509 c 0
 508 509 506 509 503 509 c 2
 447 415 l 1
 510 415 l 2
 539 415 554 409 554 389 c 0
 554 367 539 364 510 364 c 2
 417 364 l 1
 365 279 l 1
 510 279 l 2
 539 279 554 273 554 253 c 0
 554 231 539 228 510 228 c 2
 336 228 l 1
 336 69 l 1
 408 69 l 2xf4
EndSplineSet
EndChar
StartChar: brokenbar
Encoding: 320 166 213
Width: 602
Flags: MW
HStem: -172 20 199 130<271 330 271 330> 679 20<271 330 330 330>
VStem: 271 59<-172 199 -172 199 329 699>
LayerCount: 2
Fore
SplineSet
271 -172 m 1
 271 199 l 1
 330 199 l 1
 330 -172 l 1
 271 -172 l 1
271 329 m 1
 271 699 l 1
 330 699 l 1
 330 329 l 1
 271 329 l 1
EndSplineSet
EndChar
StartChar: section
Encoding: 167 167 101
Width: 602
Flags: W
HStem: -105 65<135 305 187 297> 516 63<303 313 313 322 322 422>
VStem: 76 72<325.5 347.5 325.5 357.5> 117 70<-40 22 -40 22 -40 31.5> 147 75 380 79<-7 10 -30.5 27> 422 67<459 516 516 516> 452 74<127.5 148>
LayerCount: 2
Fore
SplineSet
146 -105 m 2xa4
 124 -105 117 -97 117 -76 c 2
 117 22 l 2
 117 41 133 59 152 59 c 0
 173 59 187 45 187 22 c 2
 187 -40 l 1x91
 305 -40 l 2
 355 -40 380 -23 380 9 c 0
 380 45 348 75 289 115 c 2
 154 206 l 2
 103 241 76 287 76 335 c 0xa4
 76 380 99 413 147 439 c 1
 145 453 145 464 145 471 c 0
 145 503 161 534 190 554 c 0
 224 578 261 579 303 579 c 0
 309 579 316 579 322 579 c 2
 456 579 l 2
 479 579 489 571 489 552 c 2
 489 459 l 2
 489 434 477 420 455 420 c 0
 436 420 422 436 422 459 c 2
 422 516 l 1x4a
 313 516 l 2
 253 516 222 502 222 465 c 0
 222 432 249 400 304 363 c 2
 434 275 l 2
 492 236 526 200 526 140 c 0x49
 526 93 504 61 456 37 c 1
 458 24 459 14 459 6 c 0
 459 -67 405 -105 297 -105 c 2
 146 -105 l 2xa4
422 96 m 1x22
 443 105 452 117 452 138 c 0x91
 452 158 433 186 393 213 c 2
 262 302 l 2
 227 326 197 348 177 378 c 1
 157 369 148 357 148 338 c 0
 148 313 169 286 213 256 c 2
 320 183 l 2
 362 154 398 130 422 96 c 1x22
EndSplineSet
EndChar
StartChar: dieresis
Encoding: 200 168 130
Width: 602
Flags: MW
HStem: 522 118<161 193 161 194 409 441>
VStem: 117 118<565.5 597.5> 366 118<565.5 597.5>
LayerCount: 2
Fore
SplineSet
117 582 m 0
 117 613 145 640 177 640 c 0
 209 640 235 614 235 582 c 0
 235 547 211 522 177 522 c 0
 144 522 117 549 117 582 c 0
366 582 m 0
 366 613 393 640 425 640 c 0
 457 640 484 614 484 582 c 0
 484 547 459 522 425 522 c 0
 392 522 366 549 366 582 c 0
EndSplineSet
EndChar
StartChar: copyright
Encoding: 313 169 206
Width: 602
Flags: MW
HStem: 45 49<272.5 332.5 269 340> 149 60<272.5 329 272.5 336.5> 460 55<269.5 313 252.5 317> 576 48<269.5 333>
VStem: 12 48<303.5 366 303.5 373.5> 131 68<294 373 294 382.5> 542 48<303.5 367>
LayerCount: 2
Fore
SplineSet
375 500 m 1
 380 508 389 511 401 511 c 0
 428 511 430 493 430 440 c 0
 430 430 430 419 430 407 c 0
 430 384 423 374 400 374 c 0
 373 374 372 390 365 421 c 0
 360 442 334 460 300 460 c 0
 239 460 199 414 199 332 c 0
 199 256 243 209 302 209 c 0
 356 209 391 251 407 251 c 0
 425 251 436 240 436 223 c 0
 436 196 374 149 299 149 c 0
 205 149 131 224 131 329 c 0
 131 436 204 515 301 515 c 0
 325 515 349 510 375 500 c 1
12 335 m 0
 12 412 41 484 96 539 c 0
 151 594 224 624 301 624 c 0
 376 624 451 594 505 540 c 0
 558 487 590 411 590 335 c 0
 590 259 560 186 504 130 c 0
 450 75 379 45 301 45 c 0
 244 45 189 62 142 93 c 0
 59 148 12 236 12 335 c 0
301 576 m 0
 238 576 177 551 131 505 c 0
 86 459 60 397 60 335 c 0
 60 272 87 210 132 165 c 0
 178 119 237 94 301 94 c 0
 364 94 426 120 471 165 c 0
 517 212 542 272 542 335 c 0
 542 399 516 461 471 506 c 0
 425 551 365 576 301 576 c 0
EndSplineSet
EndChar
StartChar: ordfeminine
Encoding: 227 170 138
Width: 602
Flags: W
HStem: 111 59<143.5 466 148 466> 215 59 410 51<263 313 240.5 315.5> 540 55<276 333>
VStem: 117 63<318.5 357 318.5 373> 132 351<128 155 123.5 159> 390 61<355 398 398 398 449 452 451.5 456 280 482>
LayerCount: 2
Fore
SplineSet
393 274 m 1x7a
 350 235 298 215 246 215 c 0
 168 215 117 265 117 333 c 0
 117 413 183 461 298 461 c 0
 328 461 358 457 390 449 c 1
 390 450 390 451 390 452 c 0
 390 512 363 540 303 540 c 0
 249 540 216 507 186 507 c 0
 172 507 158 520 158 537 c 0
 158 569 215 595 313 595 c 0
 404 595 451 548 451 456 c 2
 451 280 l 1
 471 280 l 2
 474 280 477 280 481 280 c 0
 506 280 517 272 517 252 c 0
 517 234 507 225 486 225 c 2
 424 225 l 2
 410 225 400 233 397 250 c 2
 393 274 l 1x7a
390 398 m 1
 358 409 330 410 301 410 c 0
 225 410 180 378 180 336 c 0
 180 301 210 275 261 275 c 0
 326 275 390 320 390 355 c 2
 390 398 l 1
466 170 m 2x84
 477 170 483 164 483 155 c 2
 483 128 l 2
 483 119 475 111 466 111 c 2
 148 111 l 2
 139 111 132 117 132 128 c 2
 132 155 l 2
 132 163 139 170 148 170 c 2
 466 170 l 2x84
EndSplineSet
EndChar
StartChar: guillemotleft
Encoding: 171 171 105
Width: 602
Flags: MW
HStem: 45 361<252.5 266 418.5 432>
VStem: 149 138 315 137
LayerCount: 2
Fore
SplineSet
384 225 m 1
 449 89 l 2
 451 84 452 79 452 74 c 0
 452 57 440 45 424 45 c 0
 413 45 403 51 397 62 c 2
 322 203 l 2
 317 212 315 219 315 225 c 0
 315 231 317 239 322 248 c 2
 397 389 l 2
 403 399 413 406 424 406 c 0
 440 406 452 394 452 377 c 0
 452 372 451 367 449 362 c 2
 384 225 l 1
219 225 m 1
 283 89 l 2
 285 84 287 79 287 74 c 0
 287 57 274 45 258 45 c 0
 247 45 237 51 231 62 c 2
 156 203 l 2
 151 212 149 219 149 225 c 0
 149 231 151 239 156 248 c 2
 231 389 l 2
 237 399 247 406 258 406 c 0
 274 406 287 394 287 377 c 0
 287 372 285 367 283 362 c 2
 219 225 l 1
EndSplineSet
EndChar
StartChar: logicalnot
Encoding: 314 172 207
Width: 602
Flags: MW
HStem: 373 71<75.5 525 87 479>
VStem: 479 74<210 373 373 373>
LayerCount: 2
Fore
SplineSet
479 373 m 1
 87 373 l 2
 64 373 49 388 49 409 c 0
 49 429 65 444 87 444 c 2
 525 444 l 2
 543 444 553 437 553 425 c 2
 553 210 l 2
 553 187 538 171 516 171 c 0
 496 171 479 188 479 210 c 2
 479 373 l 1
EndSplineSet
EndChar
StartChar: registered
Encoding: 315 174 208
Width: 602
Flags: MW
HStem: 45 49<272.5 332.5 269 340> 176 54<174.5 203 196 203 260 269 269 271 418 422 422 429> 312 51<260 269 260 288> 452 53<183 196 196 203 260 276 276 289 260 260> 576 48<269.5 333>
VStem: 12 48<303.5 366 303.5 373.5> 203 57<230 312 363 452> 353 63<393 423.5> 542 48<303.5 367>
LayerCount: 2
Fore
SplineSet
12 335 m 0
 12 412 41 484 96 539 c 0
 151 594 224 624 301 624 c 0
 376 624 451 594 505 540 c 0
 558 487 590 411 590 335 c 0
 590 259 560 186 504 130 c 0
 450 75 379 45 301 45 c 0
 244 45 189 62 142 93 c 0
 59 148 12 236 12 335 c 0
301 576 m 0
 238 576 177 551 131 505 c 0
 86 459 60 397 60 335 c 0
 60 272 87 210 132 165 c 0
 178 119 237 94 301 94 c 0
 364 94 426 120 471 165 c 0
 517 212 542 272 542 335 c 0
 542 399 516 461 471 506 c 0
 425 551 365 576 301 576 c 0
260 230 m 1
 263 230 266 230 269 230 c 0
 294 230 306 222 306 203 c 0
 306 183 295 176 271 176 c 2
 183 176 l 2
 166 176 156 186 156 203 c 0
 156 225 168 230 196 230 c 2
 203 230 l 1
 203 452 l 1
 196 452 l 2
 168 452 156 456 156 478 c 0
 156 495 166 505 183 505 c 2
 276 505 l 2
 369 505 416 475 416 406 c 0
 416 367 393 335 355 322 c 1
 358 319 362 314 367 307 c 2
 418 230 l 2
 419 230 421 230 422 230 c 0
 445 230 456 222 456 203 c 0
 456 186 446 176 429 176 c 2
 400 176 l 2
 383 176 375 185 365 201 c 2
 314 278 l 2
 296 305 291 312 269 312 c 2
 260 312 l 1
 260 230 l 1
260 452 m 1
 260 363 l 1
 288 363 l 2
 331 363 353 378 353 408 c 0
 353 439 332 452 289 452 c 2
 260 452 l 1
EndSplineSet
EndChar
StartChar: macron
Encoding: 197 175 127
Width: 602
Flags: MW
HStem: 552 58<141.5 455 146 455>
VStem: 130 341<567 594 562.5 598.5>
LayerCount: 2
Fore
SplineSet
471 567 m 2
 471 558 464 552 455 552 c 2
 146 552 l 2
 137 552 130 558 130 567 c 2
 130 594 l 2
 130 603 137 610 146 610 c 2
 455 610 l 2
 464 610 471 603 471 594 c 2
 471 567 l 2
EndSplineSet
EndChar
StartChar: threesuperior
Encoding: 332 179 225
Width: 602
Flags: W
HStem: 223 61<262 321.5 262 342.5> 407 61 573 60<277.5 321.5>
VStem: 366 73<513 536> 383 78<331 366>
LayerCount: 2
Fore
SplineSet
385 445 m 1x70
 435 421 461 387 461 345 c 0
 461 277 396 223 289 223 c 0
 197 223 141 259 141 288 c 0
 141 304 156 320 174 320 c 0
 197 320 231 284 293 284 c 0
 350 284 383 311 383 351 c 0x88
 383 381 358 404 316 407 c 0
 279 410 255 406 255 438 c 0
 255 458 265 464 292 468 c 0
 336 474 366 475 366 520 c 0
 366 552 342 573 301 573 c 0
 254 573 220 532 196 532 c 0
 179 532 167 544 167 559 c 0
 167 587 234 633 311 633 c 0
 388 633 439 584 439 531 c 0
 439 495 421 466 385 445 c 1x70
EndSplineSet
EndChar
StartChar: acute
Encoding: 194 180 124
Width: 602
Flags: MW
HStem: 505 164
VStem: 196 281<531 615.5>
LayerCount: 2
Fore
SplineSet
196 531 m 1
 428 667 l 2
 430 668 434 669 436 669 c 0
 446 669 454 664 459 654 c 2
 475 625 l 2
 477 622 477 617 477 614 c 0
 477 606 472 598 464 595 c 2
 209 505 l 1
 196 531 l 1
EndSplineSet
EndChar
StartChar: paragraph
Encoding: 182 182 114
Width: 602
Flags: W
HStem: -76 65<172 287 210 287 210 328 459 513> 255 361<205 499 271 499> 550 66<354 401 345 499 459 499 459 459>
VStem: 287 58<-11 255 255 255> 401 58<-11 550 -11 550>
LayerCount: 2
Fore
SplineSet
287 -11 m 1xb8
 287 255 l 1
 282 255 276 255 271 255 c 0xd0
 139 255 57 328 57 433 c 0
 57 549 157 616 354 616 c 2
 499 616 l 2
 525 616 536 606 536 583 c 0
 536 557 527 550 499 550 c 2
 459 550 l 1
 459 -11 l 1
 516 -11 l 2
 539 -11 550 -22 550 -44 c 0
 550 -70 540 -76 513 -76 c 2
 420 -76 l 2
 396 -76 383 -65 383 -44 c 0
 383 -32 389 -21 401 -11 c 1
 401 550 l 1
 345 550 l 1
 345 -11 l 1
 360 -17 366 -27 366 -44 c 0
 366 -70 355 -76 328 -76 c 2
 184 -76 l 2
 160 -76 147 -65 147 -44 c 0
 147 -14 167 -11 210 -11 c 2
 287 -11 l 1xb8
EndSplineSet
EndChar
StartChar: periodcentered
Encoding: 180 183 113
Width: 602
Flags: MW
HStem: 214 188<275 327 275 327>
VStem: 207 188<282 334>
LayerCount: 2
Fore
SplineSet
207 308 m 0
 207 360 249 402 301 402 c 0
 353 402 395 360 395 308 c 0
 395 256 353 214 301 214 c 0
 248 214 207 256 207 308 c 0
EndSplineSet
EndChar
StartChar: cedilla
Encoding: 203 184 132
Width: 602
Flags: MW
HStem: -232 47<287 321.5 282 354.5> -103 42<299.5 369.5> -29 20<274 308 308 308>
VStem: 274 34<-65 -9 -65 -9 -65 -9> 353 77<-158 -131>
LayerCount: 2
Fore
SplineSet
308 -9 m 1
 308 -65 l 1
 324 -63 336 -61 344 -61 c 0
 395 -61 430 -95 430 -145 c 0
 430 -200 390 -232 319 -232 c 0
 255 -232 178 -207 178 -179 c 0
 178 -168 188 -160 202 -160 c 0
 221 -160 258 -185 306 -185 c 0
 337 -185 353 -171 353 -145 c 0
 353 -117 335 -103 301 -103 c 0
 298 -103 289 -103 274 -106 c 1
 274 -9 l 1
 308 -9 l 1
EndSplineSet
EndChar
StartChar: onesuperior
Encoding: 328 185 221
Width: 602
Flags: MW
HStem: 241 52<185 277 197 277 348 430> 612 20<327 335.5>
VStem: 277 71<293 572 572 572>
LayerCount: 2
Fore
SplineSet
277 572 m 1
 210 559 l 2
 206 558 202 558 198 558 c 0
 181 558 171 567 171 582 c 0
 171 596 179 602 196 606 c 2
 316 631 l 2
 321 632 325 632 329 632 c 0
 342 632 348 626 348 613 c 2
 348 293 l 1
 430 293 l 2
 452 293 461 286 461 267 c 0
 461 248 452 241 430 241 c 2
 196 241 l 2
 174 241 165 248 165 267 c 0
 165 286 175 293 197 293 c 2
 277 293 l 1
 277 572 l 1
EndSplineSet
EndChar
StartChar: ordmasculine
Encoding: 235 186 142
Width: 602
Flags: W
HStem: 111 59<136.5 459 141 459> 216 54<260.5 342 260.5 363.5> 541 54<260.5 342>
VStem: 95 69<366 444 366 459> 125 352<128 155 123.5 159> 439 68<366.5 444>
LayerCount: 2
Fore
SplineSet
301 270 m 0x74
 383 270 439 328 439 405 c 0
 439 483 383 541 301 541 c 0
 220 541 164 483 164 405 c 0
 164 327 220 270 301 270 c 0x74
507 405 m 0
 507 296 426 216 301 216 c 0
 177 216 95 297 95 405 c 0
 95 513 177 595 301 595 c 0
 426 595 507 514 507 405 c 0
459 170 m 2x88
 470 170 477 164 477 155 c 2
 477 128 l 2
 477 119 468 111 459 111 c 2
 141 111 l 2
 132 111 125 117 125 128 c 2
 125 155 l 2
 125 163 132 170 141 170 c 2
 459 170 l 2x88
EndSplineSet
EndChar
StartChar: guillemotright
Encoding: 187 187 119
Width: 602
Flags: MW
HStem: 45 361<169 182.5 335 348.5>
VStem: 149 138 315 137
LayerCount: 2
Fore
SplineSet
217 225 m 1
 152 362 l 2
 150 367 149 372 149 377 c 0
 149 394 161 406 177 406 c 0
 188 406 199 399 205 388 c 2
 280 248 l 2
 285 239 287 231 287 225 c 0
 287 219 285 212 280 203 c 2
 205 62 l 2
 199 52 188 45 177 45 c 0
 161 45 149 57 149 74 c 0
 149 79 150 84 152 89 c 2
 217 225 l 1
383 225 m 1
 318 362 l 2
 316 367 315 372 315 377 c 0
 315 394 327 406 343 406 c 0
 354 406 364 399 370 388 c 2
 445 248 l 2
 450 239 452 231 452 225 c 0
 452 219 450 212 445 203 c 2
 370 62 l 2
 364 52 354 45 343 45 c 0
 327 45 315 57 315 74 c 0
 315 79 316 84 318 89 c 2
 383 225 l 1
EndSplineSet
EndChar
StartChar: onehalf
Encoding: 326 189 219
Width: 602
Flags: W
HStem: -89 60<309 491 357 491 491 493> 206 58<381 416.5> 328 56<89 157 124 157 223 251 251 270.5> 616 59<116 116 116 117.5 116 120>
VStem: 157 66<384 618 618 618> 454 68<130 166.5>
LayerCount: 2
Fore
SplineSet
496 419 m 2
 502 422 508 423 513 423 c 0
 528 423 539 411 539 397 c 0
 539 387 532 376 521 370 c 2
 102 158 l 2
 97 155 91 154 86 154 c 0
 71 154 60 167 60 181 c 0
 60 191 67 201 78 207 c 2
 496 419 l 2
320 -89 m 2xfc
 298 -89 285 -73 285 -49 c 0
 285 -17 315 2 359 36 c 0
 419 81 454 111 454 149 c 0
 454 184 433 206 400 206 c 0
 362 206 335 175 312 175 c 0
 296 175 286 186 286 203 c 0
 286 226 345 264 411 264 c 0
 476 264 522 215 522 154 c 0
 522 85 466 35 357 -29 c 1
 491 -29 l 2
 515 -29 527 -40 527 -59 c 0
 527 -77 513 -89 493 -89 c 2
 320 -89 l 2xfc
100 328 m 2
 78 328 65 339 65 356 c 0
 65 380 84 384 124 384 c 2
 157 384 l 1
 157 618 l 1
 120 616 l 2
 119 616 118 616 117 616 c 0
 92 616 77 629 77 644 c 0
 77 663 90 673 116 675 c 2
 186 680 l 2
 188 680 190 680 192 680 c 0
 214 680 223 669 223 644 c 2
 223 384 l 1
 251 384 l 2
 290 384 310 382 310 356 c 0
 310 339 297 328 275 328 c 2
 100 328 l 2
EndSplineSet
EndChar
StartChar: threequarters
Encoding: 331 190 224
Width: 602
Flags: W
HStem: -93 20 -17 56<244.5 409 283 404 466 503> 243 20<401 408.5> 316 58<170 208 170 230.5> 483 51 626 54<175.5 208>
VStem: 246 68<572 591> 256 71<415.5 444.5 394.5 445.5> 404 62<-68 -17 -78.5 -17>
LayerCount: 2
Fore
SplineSet
466 -68 m 2xf180
 466 -89 454 -93 432 -93 c 0
 413 -93 404 -87 404 -68 c 2
 404 -17 l 1
 256 -17 l 2
 233 -17 226 -6 226 19 c 0
 226 37 226 53 244 75 c 2
 381 246 l 2
 390 257 396 263 406 263 c 0
 411 263 416 262 421 261 c 2
 450 253 l 2
 463 250 466 239 466 222 c 2
 466 39 l 1
 503 39 l 2
 524 39 527 33 527 12 c 0
 527 -9 525 -17 503 -17 c 2
 466 -17 l 1
 466 -68 l 2xf180
409 39 m 1
 409 203 l 1
 283 39 l 1
 409 39 l 1
496 419 m 2
 502 422 508 423 513 423 c 0
 528 423 539 411 539 397 c 0
 539 387 532 376 521 370 c 2
 102 158 l 2
 97 155 91 154 86 154 c 0
 71 154 60 167 60 181 c 0
 60 191 67 201 78 207 c 2
 496 419 l 2
262 513 m 1x0e
 305 494 327 464 327 425 c 0
 327 364 273 316 188 316 c 0
 118 316 66 342 66 366 c 0
 66 383 81 396 99 396 c 0
 123 396 152 374 188 374 c 0
 228 374 256 400 256 431 c 0xf180
 256 460 231 483 201 483 c 0
 199 483 197 483 195 483 c 0
 173 483 165 490 165 508 c 0
 165 526 173 531 197 534 c 0
 230 537 246 553 246 578 c 0
 246 604 222 626 194 626 c 0
 157 626 135 602 114 602 c 0
 99 602 87 615 87 629 c 0
 87 649 137 680 201 680 c 0
 268 680 314 637 314 589 c 0
 314 555 297 530 262 513 c 1x0e
EndSplineSet
EndChar
StartChar: questiondown
Encoding: 191 191 122
Width: 602
Flags: W
HStem: -24 68<279 340 279 355> 380 20<325.5 348.5>
VStem: 119 78<115.5 182 115.5 188.5> 246 180<500 541.5 500 542> 300 72<325 336 336 364 364 365 319.5 374.5>
LayerCount: 2
Fore
SplineSet
426 521 m 0x10
 426 479 392 448 336 448 c 0
 280 448 246 479 246 521 c 0
 246 563 280 595 336 595 c 0
 391 595 426 562 426 521 c 0x10
372 336 m 2xe8
 372 303 363 284 332 268 c 0
 266 233 197 219 197 145 c 0
 197 86 241 44 317 44 c 0
 363 44 404 61 411 73 c 0
 417 82 407 131 449 131 c 0
 469 131 484 114 484 87 c 2
 484 40 l 2
 484 5 402 -24 308 -24 c 0
 192 -24 119 47 119 146 c 0
 119 231 178 280 300 325 c 1
 300 364 l 2
 300 385 314 400 337 400 c 0
 360 400 372 387 372 365 c 2
 372 336 l 2xe8
EndSplineSet
EndChar
StartChar: Aring
Encoding: 260 197 153
Width: 602
Flags: W
HStem: 0 69<47 52 52 59 134 180 426 429 429 471 552 560 560 562> 185 65<200 400 200 424 176 400> 509 70<135.5 307 168 225 294 294> 611 58<262.5 299 262.5 315.5> 800 58<262.5 299>
VStem: 1 605<21 48> 157 58<715.5 752 715.5 769> 347 57<715.5 752>
LayerCount: 2
Fore
SplineSet
215 734 m 0x1b
 215 697 244 669 281 669 c 0
 317 669 347 697 347 734 c 0
 347 770 317 800 281 800 c 0
 244 800 215 770 215 734 c 0x1b
157 735 m 0
 157 803 212 858 281 858 c 0
 350 858 404 804 404 735 c 0
 404 666 350 611 281 611 c 0
 212 611 157 666 157 735 c 0
200 250 m 1xe4
 400 250 l 1
 294 509 l 1
 200 250 l 1xe4
225 509 m 1
 154 509 l 2
 117 509 100 517 100 544 c 0
 100 579 122 579 168 579 c 2
 307 579 l 2
 335 579 348 578 361 546 c 2
 552 69 l 2
 555 69 557 69 560 69 c 0
 594 69 606 62 606 35 c 0
 606 7 594 0 562 0 c 2
 429 0 l 2
 390 0 371 3 371 35 c 0
 371 63 388 69 426 69 c 2
 471 69 l 1
 424 185 l 1
 176 185 l 1
 134 69 l 1
 181 69 l 2
 219 69 237 63 237 35 c 0
 237 3 218 0 180 0 c 2
 52 0 l 2
 15 0 1 5 1 35 c 0
 1 61 14 69 47 69 c 0
 51 69 55 69 59 69 c 2
 225 509 l 1
EndSplineSet
EndChar
StartChar: AE
Encoding: 225 198 137
Width: 602
Flags: W
HStem: 0 69<23 61 47 61 132 141 263 279 348 507> 193 57<187 279 187 279 172 279> 271 54<348 420 348 420> 509 70<153.5 543 169 213 348 348 348 508>
VStem: 279 69<69 193 193 193 250 271 325 509> 420 61<256 271 268.5 271 325 340 337.5 361> 507 70 508 68
LayerCount: 2
Fore
SplineSet
166 509 m 2xd9
 141 509 129 520 129 544 c 0
 129 572 140 579 169 579 c 2
 543 579 l 2
 565 579 577 566 577 540 c 2
 577 414 l 2xfe
 577 392 566 380 543 380 c 0
 517 380 508 393 508 423 c 0
 508 425 508 430 508 439 c 2
 508 509 l 1xd9
 348 509 l 1
 348 325 l 1
 420 325 l 1
 420 330 420 335 420 340 c 0
 420 382 425 402 451 402 c 0
 472 402 481 389 481 362 c 2
 481 238 l 2
 481 208 475 195 451 195 c 0
 425 195 420 213 420 256 c 0
 420 261 420 266 420 271 c 1
 348 271 l 1
 348 69 l 1
 507 69 l 1
 507 148 l 2
 507 158 507 165 507 168 c 0xfe
 507 195 518 207 542 207 c 0
 565 207 576 195 576 173 c 2
 576 36 l 2
 576 13 564 0 542 0 c 2
 242 0 l 2
 223 0 212 12 212 35 c 0
 212 66 226 69 263 69 c 2
 279 69 l 1
 279 193 l 1
 172 193 l 1
 132 69 l 1
 162 69 l 2
 181 69 191 58 191 35 c 0
 191 4 178 0 141 0 c 2
 34 0 l 2
 12 0 1 12 1 35 c 0
 1 62 13 69 47 69 c 0
 51 69 56 69 61 69 c 1
 213 509 l 1
 166 509 l 2xd9
187 250 m 1xfe
 279 250 l 1
 279 522 l 1
 269 522 l 1
 187 250 l 1xfe
EndSplineSet
EndChar
StartChar: Oslash
Encoding: 233 216 140
Width: 602
Flags: MW
HStem: -54 20 -16 70<285 354 285 377.5> 524 70<247 316> 610 20<477 490>
VStem: 37 88<258.5 364.5 258.5 379> 477 88<213 320.5>
LayerCount: 2
Fore
SplineSet
476 523 m 1
 534 465 565 384 565 289 c 0
 565 109 454 -16 301 -16 c 0
 255 -16 214 -4 174 19 c 1
 137 -41 l 2
 132 -49 123 -54 115 -54 c 0
 97 -54 79 -38 79 -26 c 0
 79 -20 80 -15 83 -10 c 2
 124 58 l 1
 69 114 37 199 37 289 c 0
 37 469 147 594 301 594 c 0
 348 594 387 584 425 561 c 1
 459 617 l 2
 464 625 473 630 481 630 c 0
 499 630 517 616 517 601 c 0
 517 596 516 591 513 586 c 2
 476 523 l 1
435 454 m 1
 211 81 l 1
 240 63 269 54 301 54 c 0
 407 54 477 137 477 289 c 0
 477 352 469 403 435 454 c 1
165 127 m 1
 388 500 l 1
 359 516 331 524 301 524 c 0
 193 524 125 440 125 289 c 0
 125 228 131 177 165 127 c 1
EndSplineSet
EndChar
StartChar: Thorn
Encoding: 318 222 211
Width: 602
Flags: MW
HStem: 0 69<79 154 91 154 231 329> 124 64<231 306 231 306> 385 70<231 306 231 306> 509 70<97.5 120 120 154 231 231 231 306>
VStem: 154 77<69 124 69 188 188 385 455 509> 428 89<254 320>
LayerCount: 2
Fore
SplineSet
333 69 m 2
 364 69 378 59 378 35 c 0
 378 6 363 0 329 0 c 2
 90 0 l 2
 68 0 56 12 56 35 c 0
 56 58 67 69 91 69 c 2
 154 69 l 1
 154 509 l 1
 120 509 l 2
 75 509 56 510 56 544 c 0
 56 567 68 579 90 579 c 2
 311 579 l 2
 342 579 356 568 356 544 c 0
 356 515 340 509 306 509 c 2
 231 509 l 1
 231 455 l 1
 306 455 l 2
 446 455 517 397 517 289 c 0
 517 181 446 124 306 124 c 2
 231 124 l 1
 231 69 l 1
 333 69 l 2
231 385 m 1
 231 188 l 1
 306 188 l 2
 388 188 428 221 428 287 c 0
 428 353 388 385 306 385 c 2
 231 385 l 1
EndSplineSet
EndChar
StartChar: germandbls
Encoding: 251 223 148
Width: 602
Flags: W
HStem: -11 67<343.5 390.5 343.5 419.5> 0 69<66 89 89 120 60 165> 575 64<275.5 340.5>
VStem: 120 74<69 420> 417 77<464 510.5> 468 81<149 236>
LayerCount: 2
Fore
SplineSet
120 69 m 1x78
 120 439 l 2
 120 503 120 549 148 581 c 0
 178 616 237 639 314 639 c 0
 427 639 494 582 494 493 c 0x78
 494 435 462 397 397 378 c 1
 491 370 549 301 549 191 c 0
 549 61 480 -11 359 -11 c 0
 298 -11 273 -5 273 28 c 0
 273 46 286 59 304 59 c 0
 318 59 334 56 353 56 c 0
 428 56 468 103 468 195 c 0x84
 468 277 424 329 371 335 c 0
 319 341 279 332 279 368 c 0
 279 398 306 399 338 403 c 0
 388 409 417 440 417 484 c 0
 417 537 375 575 306 575 c 0
 206 575 194 521 194 420 c 2
 194 36 l 2
 194 13 184 0 165 0 c 2
 89 0 l 2
 43 0 21 3 21 35 c 0
 21 58 34 69 60 69 c 2
 120 69 l 1x78
EndSplineSet
EndChar
StartChar: aring
Encoding: 288 229 181
Width: 602
Flags: W
HStem: -12 12 62 7 233 63<254 312 220.5 324> 394 69<264.5 336.5> 495 58<275.5 312 275.5 328.5> 685 57<275.5 312>
VStem: 67 78<117.5 166.5 117.5 184.5> 170 58<600.5 637 600.5 653> 359 58<600.5 637.5> 409 75<163 216 216 216 281 284 283.5 290 69 321.5>
LayerCount: 2
Fore
SplineSet
228 619 m 0xcd80
 228 582 257 553 294 553 c 0
 330 553 359 582 359 619 c 0
 359 656 330 685 294 685 c 0
 257 685 228 655 228 619 c 0xcd80
170 619 m 0
 170 687 225 742 294 742 c 0
 363 742 417 688 417 619 c 0
 417 550 363 495 294 495 c 0
 225 495 170 550 170 619 c 0
409 216 m 1xf240
 376 227 342 233 306 233 c 0
 202 233 145 194 145 139 c 0
 145 96 184 63 241 63 c 0
 329 63 409 119 409 163 c 2
 409 216 l 1xf240
412 62 m 1xcd80
 359 14 296 -12 229 -12 c 0
 131 -12 67 48 67 134 c 0
 67 235 148 296 293 296 c 0
 331 296 369 291 409 281 c 1
 409 282 409 283 409 284 c 0
 409 359 374 394 299 394 c 0
 230 394 190 353 152 353 c 0
 134 353 119 369 119 394 c 0
 119 428 191 463 301 463 c 0
 426 463 484 408 484 290 c 2
 484 69 l 1xf240
 509 69 l 2
 550 69 567 64 567 35 c 0
 567 12 554 0 528 0 c 2
 451 0 l 2
 433 0 421 11 417 32 c 2
 412 62 l 1xcd80
EndSplineSet
EndChar
StartChar: ae
Encoding: 241 230 143
Width: 602
Flags: W
HStem: -12 69<136.5 174.5 393.5 455.5> 204 59<261 266 333 500> 397 68<400.5 446.5> 402 63<167 220.5>
VStem: 19 69<103.5 154.5 103.5 169.5> 266 67<145 204 204 204> 500 76<263 271 270 312.5>
LayerCount: 2
Fore
SplineSet
266 204 m 1xde
 256 204 246 205 237 205 c 0
 136 205 88 184 88 125 c 0
 88 82 114 57 159 57 c 0
 215 57 266 99 266 145 c 2
 266 204 l 1xde
333 263 m 1x66
 500 263 l 1
 500 266 500 269 500 271 c 0
 500 354 471 397 422 397 c 0
 369 397 333 354 333 275 c 0
 333 271 333 267 333 263 c 1x66
530 204 m 2xde
 333 204 l 1
 332 194 332 184 332 175 c 0
 332 98 365 57 422 57 c 0
 489 57 519 121 550 121 c 0
 566 121 579 108 579 90 c 0
 579 51 507 -12 419 -12 c 0
 366 -12 332 10 296 61 c 1
 243 13 201 -12 148 -12 c 0
 71 -12 19 43 19 119 c 0
 19 220 86 263 215 263 c 2
 268 263 l 1
 269 275 270 286 270 296 c 0
 270 367 245 402 196 402 c 0
 138 402 112 355 80 355 c 0
 67 355 55 367 55 383 c 0
 55 415 117 465 199 465 c 0
 246 465 279 447 307 407 c 1
 340 446 378 465 423 465 c 0
 517 465 576 390 576 255 c 0
 576 210 567 204 530 204 c 2xde
EndSplineSet
EndChar
StartChar: eth
Encoding: 323 240 216
Width: 602
Flags: MW
HStem: -12 68<250.5 351.5 250.5 379> 390 66<250.5 303 218.5 351.5> 620 20<194 213>
VStem: 45 85<176.5 270 176.5 288> 472 85<176 269.5>
LayerCount: 2
Fore
SplineSet
301 56 m 0
 402 56 472 129 472 223 c 0
 472 316 402 390 301 390 c 0
 200 390 130 317 130 223 c 0
 130 130 200 56 301 56 c 0
371 443 m 1
 346 474 319 503 290 528 c 1
 200 487 l 2
 189 482 179 478 170 478 c 0
 159 478 151 489 151 501 c 0
 151 514 161 521 180 530 c 2
 250 561 l 1
 195 601 164 607 164 619 c 0
 164 629 183 640 205 640 c 0
 221 640 257 623 315 590 c 1
 395 626 l 2
 407 631 415 635 424 635 c 0
 435 635 444 624 444 612 c 0
 444 599 434 591 415 583 c 2
 360 560 l 1
 490 459 557 345 557 234 c 0
 557 88 457 -12 301 -12 c 0
 147 -12 45 91 45 223 c 0
 45 353 148 456 289 456 c 0
 317 456 344 451 371 443 c 1
EndSplineSet
EndChar
StartChar: oslash
Encoding: 249 248 146
Width: 602
Flags: W
HStem: -21 20 -10 64<291 361.5 291 379> 401 61<249 321> 455 20<516 526>
VStem: 47 81<212.5 282 212.5 294> 481 76<178.5 245.5>
LayerCount: 2
Fore
SplineSet
497 384 m 1x90
 532 347 557 299 557 226 c 0
 557 90 456 -10 302 -10 c 0x6c
 244 -10 195 3 145 34 c 1
 97 -13 l 2
 92 -18 87 -21 81 -21 c 0
 67 -21 52 -7 52 7 c 0
 52 13 54 19 58 23 c 2
 106 70 l 1
 67 120 47 170 47 226 c 0
 47 362 150 462 303 462 c 0xa8
 359 462 408 448 455 420 c 1
 502 467 l 2
 507 472 513 475 519 475 c 0
 533 475 547 461 547 447 c 0
 547 441 544 433 541 430 c 2
 497 384 l 1x90
162 127 m 1x6c
 404 368 l 1
 376 387 342 401 300 401 c 0
 198 401 128 332 128 232 c 0
 128 193 139 161 162 127 c 1x6c
443 331 m 1
 199 88 l 1
 236 65 271 54 311 54 c 0
 412 54 481 131 481 226 c 0
 481 265 469 298 443 331 c 1
EndSplineSet
EndChar
StartChar: thorn
Encoding: 330 254 223
Width: 602
Flags: MW
HStem: -195 70<59 101 92 101 174 288> -1 72<308.5 371.5 280.5 407> 377 75<304 371.5> 569 70<72 93.5 92 101>
VStem: 101 73<-125 70> 481 84<178.5 268>
LayerCount: 2
Fore
SplineSet
326 71 m 0
 417 71 481 133 481 224 c 0
 481 312 417 377 326 377 c 0
 235 377 172 312 172 224 c 0
 172 135 235 71 326 71 c 0
174 -125 m 1
 292 -125 l 2
 317 -125 329 -137 329 -160 c 0
 329 -187 317 -195 288 -195 c 2
 72 -195 l 2
 46 -195 33 -183 33 -160 c 0
 33 -132 50 -125 92 -125 c 0
 95 -125 98 -125 101 -125 c 1
 101 569 l 1
 98 569 95 569 92 569 c 0
 50 569 33 576 33 604 c 0
 33 627 46 639 72 639 c 2
 147 639 l 2
 166 639 175 633 175 619 c 2
 175 384 l 1
 219 429 273 452 335 452 c 0
 464 452 565 355 565 219 c 0
 565 90 471 -1 343 -1 c 0
 274 -1 214 24 174 70 c 1
 174 -125 l 1
EndSplineSet
EndChar
StartChar: dotlessi
Encoding: 245 305 144
Width: 602
Flags: MW
HStem: 0 69<108 272 123 272 346 500> 382 69<175 177 177 272>
VStem: 272 74<69 382 382 382>
LayerCount: 2
Fore
SplineSet
346 69 m 1
 503 69 l 2
 528 69 540 59 540 35 c 0
 540 7 529 0 500 0 c 2
 121 0 l 2
 95 0 82 12 82 35 c 0
 82 58 96 69 123 69 c 2
 272 69 l 1
 272 382 l 1
 177 382 l 2
 150 382 136 394 136 417 c 0
 136 440 149 451 175 451 c 2
 318 451 l 2
 337 451 346 443 346 431 c 2
 346 69 l 1
EndSplineSet
EndChar
StartChar: Lslash
Encoding: 232 321 139
Width: 602
Flags: MW
HStem: 0 69<52 148 64 148 87 148 225 485> 509 70<66 307 87 148 225 225 225 307>
VStem: 148 77<69 229 229 229 337 509> 485 70<69 197>
LayerCount: 2
Fore
SplineSet
485 197 m 2
 485 239 489 255 520 255 c 0
 553 255 555 237 555 197 c 2
 555 36 l 2
 555 13 542 0 520 0 c 2
 87 0 l 2
 82 0 74 0 64 0 c 0
 40 0 29 12 29 35 c 0
 29 66 45 69 87 69 c 2
 148 69 l 1
 148 229 l 1
 100 195 l 2
 84 184 73 179 67 179 c 0
 53 179 39 192 39 208 c 0
 39 221 48 229 66 242 c 2
 148 299 l 1
 148 509 l 1
 87 509 l 2
 45 509 29 513 29 544 c 0
 29 577 48 579 87 579 c 2
 307 579 l 2
 318 579 326 579 330 579 c 0
 354 579 366 567 366 544 c 0
 366 512 348 509 307 509 c 2
 225 509 l 1
 225 337 l 1
 323 404 l 2
 338 414 348 419 353 419 c 0
 367 419 381 404 381 388 c 0
 381 376 373 368 356 357 c 2
 225 267 l 1
 225 69 l 1
 485 69 l 1
 485 197 l 2
EndSplineSet
EndChar
StartChar: lslash
Encoding: 248 322 145
Width: 602
Flags: MW
HStem: 0 69<118 268 133 268 342 491> 569 70<179.5 185 185 268>
VStem: 268 74<69 298 298 298 392 569 569 569>
LayerCount: 2
Fore
SplineSet
268 298 m 1
 201 252 l 2
 187 242 177 237 170 237 c 0
 157 237 145 249 145 263 c 0
 145 275 154 283 171 295 c 2
 268 362 l 1
 268 569 l 1
 185 569 l 2
 174 569 165 570 160 570 c 0
 128 570 114 579 114 604 c 0
 114 627 127 639 153 639 c 2
 314 639 l 2
 333 639 342 631 342 619 c 2
 342 392 l 1
 414 442 l 2
 428 452 439 458 445 458 c 0
 458 458 470 446 470 432 c 0
 470 419 461 412 444 400 c 2
 342 329 l 1
 342 69 l 1
 494 69 l 2
 519 69 531 59 531 35 c 0
 531 7 520 0 491 0 c 2
 131 0 l 2
 105 0 92 12 92 35 c 0
 92 58 106 69 133 69 c 2
 268 69 l 1
 268 298 l 1
EndSplineSet
EndChar
StartChar: OE
Encoding: 234 338 141
Width: 602
Flags: W
HStem: 0 65<284 284 284 315 352 507> 65 450<216.5 284 216.5 507 216.5 507> 514 65<281 543 352 508 352 352>
VStem: 34 80<228.5 351> 284 68<65 271 325 514> 420 61<256 271 268.5 271 325 358 346.5 362> 507 69<65 148 148 168 166.5 173> 508 69<423 439 439 514 514 514>
LayerCount: 2
Fore
SplineSet
315 0 m 2xae
 246 0 192 6 149 34 c 0
 74 82 34 168 34 289 c 0
 34 413 75 503 148 548 c 0
 184 571 239 579 316 579 c 2
 543 579 l 2
 565 579 577 566 577 540 c 2
 577 414 l 2
 577 392 566 380 543 380 c 0
 517 380 508 393 508 423 c 0
 508 425 508 430 508 439 c 2
 508 514 l 1xb9
 352 514 l 1
 352 325 l 1
 420 325 l 1
 420 325 420 335 420 358 c 0
 420 388 427 402 451 402 c 0
 472 402 481 389 481 362 c 2
 481 238 l 2
 481 208 475 195 451 195 c 0
 425 195 420 213 420 256 c 0
 420 261 420 266 420 271 c 1
 352 271 l 1
 352 65 l 1
 507 65 l 1
 507 148 l 2
 507 158 507 165 507 168 c 0
 507 195 518 207 542 207 c 0
 565 207 576 195 576 173 c 2
 576 36 l 2
 576 13 564 0 542 0 c 2
 315 0 l 2xae
284 514 m 1xb9
 278 514 272 515 267 515 c 0
 166 515 114 438 114 289 c 0
 114 142 166 64 266 64 c 0
 272 64 278 64 284 65 c 1x58
 284 514 l 1xb9
EndSplineSet
EndChar
StartChar: oe
Encoding: 250 339 147
Width: 602
Flags: W
HStem: -12 69<166 209.5 396.5 456.5> 204 59<337 500 338 500 338 528> 395 68<166 216.5 147.5 218.5> 397 69<403 448.5>
VStem: 35 74<170 280 170 301.5> 500 76<263 271 270 312.5>
LayerCount: 2
Fore
SplineSet
338 263 m 1x54
 500 263 l 1
 500 266 500 269 500 271 c 0
 500 354 471 397 426 397 c 0
 368 397 338 354 338 267 c 0
 338 266 338 264 338 263 c 1x54
191 57 m 0xe8
 239 57 273 113 273 215 c 0
 273 335 246 395 191 395 c 0
 141 395 109 335 109 225 c 0
 109 115 141 57 191 57 c 0xe8
337 204 m 1x54
 337 197 336 190 336 183 c 0
 336 101 369 57 424 57 c 0
 489 57 519 121 550 121 c 0
 566 121 579 108 579 90 c 0
 579 51 506 -12 419 -12 c 0
 367 -12 330 9 303 54 c 1
 271 9 233 -12 186 -12 c 0
 97 -12 35 77 35 225 c 0
 35 378 101 463 194 463 c 0xe8
 239 463 274 443 306 402 c 1
 341 445 380 466 426 466 c 0
 516 466 576 389 576 255 c 0
 576 209 567 204 528 204 c 2
 337 204 l 1x54
EndSplineSet
EndChar
StartChar: circumflex
Encoding: 195 710 125
Width: 602
Flags: MW
HStem: 510 147<146.5 306 296 455.5>
VStem: 133 336<522.5 530.5>
LayerCount: 2
Fore
SplineSet
301 587 m 1
 160 512 l 2
 157 510 154 510 151 510 c 0
 142 510 133 517 133 528 c 0
 133 533 135 538 139 541 c 2
 274 647 l 2
 282 654 291 657 301 657 c 0
 311 657 320 654 328 647 c 2
 463 541 l 2
 467 538 469 533 469 528 c 0
 469 517 460 510 451 510 c 0
 448 510 445 510 442 512 c 2
 301 587 l 1
EndSplineSet
EndChar
StartChar: caron
Encoding: 207 711 135
Width: 602
Flags: MW
HStem: 511 147<146.5 306>
VStem: 133 336<637.5 645.5>
LayerCount: 2
Fore
SplineSet
301 581 m 1
 441 656 l 2
 444 658 447 658 450 658 c 0
 460 658 469 651 469 640 c 0
 469 635 467 631 463 628 c 2
 328 521 l 2
 320 514 311 511 301 511 c 0
 291 511 282 515 274 521 c 2
 139 628 l 2
 135 631 133 635 133 640 c 0
 133 651 142 658 151 658 c 0
 154 658 157 658 160 656 c 2
 301 581 l 1
EndSplineSet
EndChar
StartChar: breve
Encoding: 198 728 128
Width: 602
Flags: MW
HStem: 529 62<272.5 329.5 272.5 362> 641 20<123 140 462 479>
VStem: 114 374<616 647.5>
LayerCount: 2
Fore
SplineSet
301 529 m 0
 179 529 114 591 114 641 c 0
 114 654 118 661 128 661 c 0
 152 661 156 633 180 616 c 0
 203 600 244 591 301 591 c 0
 358 591 398 600 421 616 c 0
 445 633 450 661 474 661 c 0
 484 661 488 654 488 641 c 0
 488 591 423 529 301 529 c 0
EndSplineSet
EndChar
StartChar: dotaccent
Encoding: 199 729 129
Width: 602
Flags: MW
HStem: 527 124<284.5 318 284.5 318.5>
VStem: 239 124<571.5 605>
LayerCount: 2
Fore
SplineSet
239 589 m 0
 239 621 268 651 301 651 c 0
 335 651 363 623 363 589 c 0
 363 553 336 527 301 527 c 0
 267 527 239 554 239 589 c 0
EndSplineSet
EndChar
StartChar: ring
Encoding: 202 730 131
Width: 602
Flags: MW
HStem: 500 57<282.5 319 282.5 335.5> 689 58<282.5 319>
VStem: 178 57<604.5 641 604.5 658> 367 58<604.5 641>
LayerCount: 2
Fore
SplineSet
178 624 m 0
 178 692 232 747 301 747 c 0
 370 747 425 693 425 624 c 0
 425 555 370 500 301 500 c 0
 232 500 178 555 178 624 c 0
235 623 m 0
 235 586 264 557 301 557 c 0
 337 557 367 586 367 623 c 0
 367 659 337 689 301 689 c 0
 264 689 235 659 235 623 c 0
EndSplineSet
EndChar
StartChar: ogonek
Encoding: 206 731 134
Width: 602
Flags: MW
HStem: -223 55<351.5 358> -5 20<379 405 405 405>
VStem: 248 72<-131.5 -123.5>
LayerCount: 2
Fore
SplineSet
405 15 m 1
 349 -31 320 -68 320 -114 c 0
 320 -149 337 -168 366 -168 c 0
 400 -168 414 -137 423 -137 c 0
 430 -137 434 -142 434 -146 c 0
 434 -164 391 -223 325 -223 c 0
 278 -223 248 -193 248 -150 c 0
 248 -97 289 -41 379 15 c 1
 405 15 l 1
EndSplineSet
EndChar
StartChar: tilde
Encoding: 196 732 126
Width: 602
Flags: MW
HStem: 542 89
VStem: 124 353<550.5 623>
LayerCount: 2
Fore
SplineSet
350 609 m 2
 367 605 381 602 391 602 c 0
 430 602 437 636 459 636 c 0
 471 636 477 629 477 617 c 0
 477 594 435 542 366 542 c 0
 348 542 328 545 307 550 c 2
 251 565 l 2
 237 569 223 571 210 571 c 0
 171 571 164 538 142 538 c 0
 130 538 124 545 124 556 c 0
 124 580 167 631 236 631 c 0
 255 631 274 628 294 623 c 2
 350 609 l 2
EndSplineSet
EndChar
StartChar: hungarumlaut
Encoding: 205 733 133
Width: 602
Flags: MW
HStem: 505 155<188 330.5 325 352>
VStem: 169 164<527 527> 370 164<608.5 614>
LayerCount: 2
Fore
SplineSet
169 527 m 1
 308 649 l 2
 316 656 323 660 327 660 c 0
 334 660 340 657 344 652 c 2
 365 625 l 2
 368 621 370 616 370 612 c 0
 370 605 366 599 358 595 c 2
 188 505 l 1
 169 527 l 1
333 527 m 1
 472 649 l 2
 480 656 487 660 491 660 c 0
 498 660 504 657 508 652 c 2
 530 625 l 2
 533 621 534 616 534 612 c 0
 534 605 530 599 522 595 c 2
 352 505 l 1
 333 527 l 1
EndSplineSet
EndChar
StartChar: endash
Encoding: 177 8211 110
Width: 602
Flags: MW
HStem: 185 81<-6.5 602 0 602>
VStem: -22 647<208 246 201.5 252>
LayerCount: 2
Fore
SplineSet
602 266 m 2
 617 266 625 259 625 246 c 2
 625 208 l 2
 625 195 614 185 602 185 c 2
 0 185 l 2
 -13 185 -22 194 -22 208 c 2
 -22 246 l 2
 -22 258 -13 266 0 266 c 2
 602 266 l 2
EndSplineSet
EndChar
StartChar: emdash
Encoding: 208 8212 136
Width: 602
Flags: MW
HStem: 185 81<-6.5 602 0 602>
VStem: -22 647<208 246 202 251.5>
LayerCount: 2
Fore
SplineSet
602 266 m 2
 617 266 625 258 625 246 c 2
 625 208 l 2
 625 196 614 185 602 185 c 2
 0 185 l 2
 -13 185 -22 194 -22 208 c 2
 -22 246 l 2
 -22 257 -13 266 0 266 c 2
 602 266 l 2
EndSplineSet
EndChar
StartChar: quoteleft
Encoding: 96 8216 64
Width: 602
Flags: MW
HStem: 334 262<220 343.5 224 343.5>
VStem: 211 180
LayerCount: 2
Fore
SplineSet
337 356 m 2
 333 339 330 334 312 334 c 2
 224 334 l 2
 216 334 211 338 211 343 c 0
 211 345 212 349 214 354 c 2
 324 582 l 2
 329 591 335 596 342 596 c 0
 345 596 347 595 350 594 c 2
 378 583 l 2
 386 580 391 574 391 568 c 0
 391 565 390 562 389 558 c 2
 337 356 l 2
EndSplineSet
EndChar
StartChar: quoteright
Encoding: 39 8217 7
Width: 602
Flags: MW
HStem: 318 261<262.5 382>
VStem: 215 180
LayerCount: 2
Fore
SplineSet
269 557 m 2
 273 574 276 579 294 579 c 2
 382 579 l 2
 390 579 395 574 395 570 c 0
 395 568 395 564 392 559 c 2
 282 331 l 2
 278 322 271 318 264 318 c 0
 261 318 259 318 256 319 c 2
 228 330 l 2
 219 333 215 338 215 344 c 0
 215 347 216 351 217 355 c 2
 269 557 l 2
EndSplineSet
EndChar
StartChar: quotesinglbase
Encoding: 184 8218 116
Width: 602
Flags: MW
HStem: -146 261<247.5 367>
VStem: 200 180
LayerCount: 2
Fore
SplineSet
253 93 m 2
 257 110 261 115 279 115 c 2
 367 115 l 2
 375 115 380 111 380 106 c 0
 380 104 379 100 377 95 c 2
 267 -133 l 2
 263 -142 256 -146 249 -146 c 0
 246 -146 244 -146 241 -145 c 2
 213 -134 l 2
 205 -131 200 -125 200 -119 c 0
 200 -116 200 -113 201 -109 c 2
 253 93 l 2
EndSplineSet
EndChar
StartChar: quotedblleft
Encoding: 170 8220 104
Width: 602
Flags: MW
HStem: 342 254<117 236.5 121 236.5 231.5 312 231.5 397>
VStem: 108 175 300 174
LayerCount: 2
Fore
SplineSet
231 363 m 2
 227 346 224 342 206 342 c 2
 121 342 l 2
 113 342 108 345 108 350 c 0
 108 352 109 356 111 361 c 2
 218 582 l 2
 223 591 228 596 235 596 c 0
 238 596 240 595 243 594 c 2
 270 584 l 2
 278 581 283 575 283 569 c 0
 283 566 282 562 281 559 c 2
 231 363 l 2
423 363 m 2
 419 346 415 342 397 342 c 2
 312 342 l 2
 304 342 300 345 300 350 c 0
 300 352 301 356 303 361 c 2
 410 582 l 2
 415 591 420 596 426 596 c 0
 429 596 431 595 434 594 c 2
 462 584 l 2
 470 581 474 575 474 569 c 0
 474 566 474 562 473 559 c 2
 423 363 l 2
EndSplineSet
EndChar
StartChar: quotedblright
Encoding: 186 8221 118
Width: 602
Flags: MW
HStem: 325 254<169 284 199 365.5>
VStem: 122 175 314 175
LayerCount: 2
Fore
SplineSet
366 558 m 2
 370 574 373 579 391 579 c 2
 476 579 l 2
 484 579 489 575 489 570 c 0
 489 568 487 564 485 559 c 2
 378 338 l 2
 374 329 369 325 362 325 c 0
 360 325 357 326 354 327 c 2
 327 337 l 2
 319 340 314 345 314 351 c 0
 314 354 314 358 315 361 c 2
 366 558 l 2
174 558 m 2
 178 574 181 579 199 579 c 2
 284 579 l 2
 292 579 297 575 297 570 c 0
 297 568 296 564 294 559 c 2
 187 338 l 2
 183 329 177 325 170 325 c 0
 168 325 165 326 162 327 c 2
 135 337 l 2
 127 340 122 345 122 351 c 0
 122 354 123 358 124 361 c 2
 174 558 l 2
EndSplineSet
EndChar
StartChar: quotedblbase
Encoding: 185 8222 117
Width: 602
Flags: MW
HStem: -139 254<162 277 191 357.5>
VStem: 115 174 306 175
LayerCount: 2
Fore
SplineSet
358 94 m 2
 362 110 365 115 383 115 c 2
 468 115 l 2
 476 115 481 112 481 107 c 0
 481 105 480 101 478 96 c 2
 371 -126 l 2
 367 -135 361 -139 354 -139 c 0
 352 -139 349 -138 346 -137 c 2
 319 -127 l 2
 311 -124 306 -118 306 -112 c 0
 306 -109 307 -105 308 -102 c 2
 358 94 l 2
166 94 m 2
 170 110 173 115 191 115 c 2
 277 115 l 2
 285 115 289 112 289 107 c 0
 289 105 288 101 286 96 c 2
 179 -126 l 2
 175 -135 170 -139 163 -139 c 0
 161 -139 158 -138 155 -137 c 2
 127 -127 l 2
 119 -124 115 -118 115 -112 c 0
 115 -109 115 -105 116 -102 c 2
 166 94 l 2
EndSplineSet
EndChar
StartChar: dagger
Encoding: 178 8224 111
Width: 602
Flags: MW
HStem: -14 20 387 61<143 268 151 268 335 451> 575 20<290.5 311>
VStem: 268 67<23 387 448 557>
LayerCount: 2
Fore
SplineSet
451 448 m 2
 465 448 481 434 481 417 c 0
 481 400 467 387 451 387 c 2
 335 387 l 1
 335 23 l 2
 335 1 322 -14 301 -14 c 0
 280 -14 268 -1 268 23 c 2
 268 387 l 1
 151 387 l 2
 135 387 121 400 121 417 c 0
 121 434 136 448 151 448 c 2
 268 448 l 1
 268 557 l 2
 268 581 280 595 301 595 c 0
 321 595 335 579 335 557 c 2
 335 448 l 1
 451 448 l 2
EndSplineSet
EndChar
StartChar: daggerdbl
Encoding: 179 8225 112
Width: 602
Flags: MW
HStem: -15 20 137 60<144 267 151 267 335 451> 387 60<143 267 151 267 335 451> 575 20<291 311>
VStem: 267 68<23 137 197 387 447 557>
LayerCount: 2
Fore
SplineSet
451 447 m 2
 466 447 481 434 481 417 c 0
 481 400 467 387 451 387 c 2
 335 387 l 1
 335 197 l 1
 451 197 l 2
 467 197 481 185 481 168 c 0
 481 151 466 137 451 137 c 2
 335 137 l 1
 335 23 l 2
 335 0 322 -15 301 -15 c 0
 281 -15 267 1 267 23 c 2
 267 137 l 1
 151 137 l 2
 137 137 122 151 122 168 c 0
 122 185 135 197 151 197 c 2
 267 197 l 1
 267 387 l 1
 151 387 l 2
 135 387 121 400 121 417 c 0
 121 434 136 447 151 447 c 2
 267 447 l 1
 267 557 l 2
 267 580 281 595 301 595 c 0
 321 595 335 579 335 557 c 2
 335 447 l 1
 451 447 l 2
EndSplineSet
EndChar
StartChar: bullet
Encoding: 183 8226 115
Width: 602
Flags: MW
HStem: 256 157<279.5 322.5>
VStem: 223 156<312.5 355.5 312.5 356>
LayerCount: 2
Fore
SplineSet
223 334 m 0
 223 378 258 413 301 413 c 0
 344 413 379 377 379 334 c 0
 379 291 344 256 301 256 c 0
 258 256 223 290 223 334 c 0
EndSplineSet
EndChar
StartChar: ellipsis
Encoding: 188 8230 120
Width: 602
Flags: MW
HStem: -15 137<80 118 80 118.5 281 319 482 520>
VStem: 31 137<34.5 72> 232 137<34.5 72> 433 137<34.5 72>
LayerCount: 2
Fore
SplineSet
232 53 m 0
 232 91 262 122 300 122 c 0
 338 122 369 91 369 53 c 0
 369 15 339 -15 300 -15 c 0
 262 -15 232 16 232 53 c 0
433 53 m 0
 433 91 463 122 501 122 c 0
 539 122 570 91 570 53 c 0
 570 15 540 -15 501 -15 c 0
 463 -15 433 16 433 53 c 0
31 53 m 0
 31 91 61 122 99 122 c 0
 137 122 168 91 168 53 c 0
 168 15 138 -15 99 -15 c 0
 61 -15 31 16 31 53 c 0
EndSplineSet
EndChar
StartChar: perthousand
Encoding: 189 8240 121
Width: 602
Flags: W
HStem: -1 57<187 237 187 254 496 546> 205 57<187 237 496 546> 353 58<74 124 74 141> 559 58<74 124>
VStem: -44 60<463.5 506.5 463.5 522.5> 70 60<109.5 152.5 109.5 168.5> 181 60<463.5 506.5> 295 60<109.5 152.5> 378 61<109.5 152.5 109.5 168.5> 603 60<109.5 152.5>
LayerCount: 2
Fore
SplineSet
-44 485 m 0
 -44 560 16 617 99 617 c 0
 183 617 241 560 241 485 c 0
 241 410 183 353 99 353 c 0
 15 353 -44 410 -44 485 c 0
16 485 m 0
 16 442 49 411 99 411 c 0
 149 411 181 442 181 485 c 0
 181 528 149 559 99 559 c 0
 49 559 16 528 16 485 c 0
309 399 m 2
 314 401 319 402 323 402 c 0
 339 402 349 391 349 375 c 0
 349 364 342 353 330 348 c 2
 2 218 l 2
 -3 216 -8 215 -12 215 c 0
 -28 215 -39 227 -39 242 c 0
 -39 253 -30 264 -18 269 c 2
 309 399 l 2
70 131 m 0xffc0
 70 206 129 262 212 262 c 0
 296 262 355 206 355 131 c 0
 355 56 296 -1 212 -1 c 0
 128 -1 70 56 70 131 c 0xffc0
130 131 m 0
 130 88 162 56 212 56 c 0
 262 56 295 88 295 131 c 0
 295 174 262 205 212 205 c 0
 162 205 130 174 130 131 c 0
378 131 m 0
 378 206 438 262 521 262 c 0
 605 262 663 206 663 131 c 0
 663 56 605 -1 521 -1 c 0
 437 -1 378 56 378 131 c 0
439 131 m 0
 439 88 471 56 521 56 c 0
 571 56 603 88 603 131 c 0
 603 174 571 205 521 205 c 0
 471 205 439 174 439 131 c 0
EndSplineSet
EndChar
StartChar: guilsinglleft
Encoding: 172 8249 106
Width: 602
Flags: MW
HStem: 45 361<335.5 349>
VStem: 232 138
LayerCount: 2
Fore
SplineSet
302 225 m 1
 366 89 l 2
 368 84 370 79 370 74 c 0
 370 57 357 45 341 45 c 0
 330 45 320 51 314 62 c 2
 239 203 l 2
 234 212 232 219 232 225 c 0
 232 231 234 239 239 248 c 2
 314 389 l 2
 320 399 330 406 341 406 c 0
 357 406 370 394 370 377 c 0
 370 372 368 367 366 362 c 2
 302 225 l 1
EndSplineSet
EndChar
StartChar: guilsinglright
Encoding: 173 8250 107
Width: 602
Flags: MW
HStem: 45 361<252 265.5>
VStem: 232 137
LayerCount: 2
Fore
SplineSet
300 225 m 1
 235 362 l 2
 233 367 232 372 232 377 c 0
 232 394 244 406 260 406 c 0
 271 406 281 399 287 388 c 2
 362 248 l 2
 367 239 369 231 369 225 c 0
 369 219 367 212 362 203 c 2
 287 62 l 2
 281 52 271 45 260 45 c 0
 244 45 232 57 232 74 c 0
 232 79 233 84 235 89 c 2
 300 225 l 1
EndSplineSet
EndChar
StartChar: minus
Encoding: 316 8722 209
Width: 602
Flags: MW
HStem: 262 91<90.5 502 97 502>
VStem: 76 449<284 334 278.5 339.5>
LayerCount: 2
Fore
SplineSet
97 262 m 2
 84 262 76 271 76 284 c 2
 76 334 l 2
 76 345 84 353 97 353 c 2
 502 353 l 2
 517 353 525 345 525 334 c 2
 525 284 l 2
 525 273 515 262 502 262 c 2
 97 262 l 2
EndSplineSet
EndChar
StartChar: fi
Encoding: 174 64257 108
Width: 602
Flags: W
HStem: 0 68<42 44 44 113 187 260 260 262> 380 70<41.5 66 66 109 38 113 187 187 187 273> 544 128<450.5 494.5> 567 73<240 283.5>
VStem: 113 73<68 450 380 450> 421 100<580.5 624.5> 437 74<69 382 382 382>
LayerCount: 2
Fore
SplineSet
260 68 m 2xda
 288 68 301 59 301 35 c 0
 301 12 288 0 262 0 c 2
 44 0 l 2
 17 0 3 12 3 35 c 0
 3 58 15 68 42 68 c 2
 113 68 l 1
 113 380 l 1
 66 380 l 2
 17 380 -1 389 -1 417 c 0
 -1 440 11 450 38 450 c 2
 109 450 l 1
 109 450 109 460 109 480 c 0
 109 585 178 640 294 640 c 0
 350 640 376 627 376 592 c 0
 376 571 361 555 344 555 c 0
 326 555 300 567 267 567 c 0
 213 567 185 535 185 472 c 0
 185 465 185 458 186 450 c 1
 276 450 l 2
 304 450 317 441 317 417 c 0
 317 393 302 380 273 380 c 2
 187 380 l 1
 187 68 l 1
 260 68 l 2xda
511 69 m 1
 566 69 l 2
 591 69 602 59 602 35 c 0
 602 7 591 0 562 0 c 2
 374 0 l 2
 348 0 334 12 334 35 c 0
 334 58 348 69 375 69 c 2
 437 69 l 1
 437 382 l 1
 415 382 l 2
 404 382 395 382 390 382 c 0
 358 382 344 392 344 417 c 0
 344 440 357 451 383 451 c 2
 483 451 l 2
 502 451 511 443 511 431 c 2
 511 69 l 1
421 592 m 0x24
 421 657 427 672 472 672 c 0
 517 672 521 657 521 606 c 0
 521 555 518 544 471 544 c 0
 430 544 421 552 421 592 c 0x24
EndSplineSet
EndChar
StartChar: fl
Encoding: 175 64258 109
Width: 602
Flags: W
HStem: 0 69<42 44 44 113 187 260 260 262 375 437 511 562> 381 70<44 45 45 109 44 113 187 187 187 263 263 272> 569 70<368.5 483 411 437> 574 68<256.5 284.5>
VStem: 113 73<69 451 381 451> 437 74<69 569 569 569>
LayerCount: 2
Fore
SplineSet
260 69 m 2xd8
 288 69 301 58 301 35 c 0
 301 12 288 0 262 0 c 2
 44 0 l 2
 17 0 3 12 3 35 c 0
 3 58 16 69 42 69 c 2
 113 69 l 1
 113 381 l 1
 45 381 l 2
 14 381 -1 393 -1 417 c 0
 -1 442 13 451 44 451 c 2
 109 451 l 1
 109 451 109 461 109 480 c 0
 109 599 179 642 334 642 c 0xd8
 363 642 389 639 411 639 c 2
 483 639 l 2
 502 639 511 631 511 619 c 2
 511 69 l 1
 562 69 l 2
 590 69 602 60 602 35 c 0
 602 7 591 0 562 0 c 2
 374 0 l 2
 348 0 334 12 334 35 c 0
 334 58 347 69 375 69 c 2
 437 69 l 1
 437 569 l 1
 375 569 l 2xa4
 362 569 350 566 339 566 c 0
 316 566 295 574 274 574 c 0
 220 574 185 536 185 472 c 0
 185 465 185 458 186 451 c 1
 263 451 l 2
 300 451 317 445 317 417 c 0
 317 393 302 381 272 381 c 2
 187 381 l 1
 187 69 l 1
 260 69 l 2xd8
EndSplineSet
EndChar
